solid OpenSCAD_Model
  facet normal -1 0 0
    outer loop
      vertex 0 57.5 0
      vertex 0 42.4863 14.7387
      vertex 0 57.5 30
    endloop
  endfacet
  facet normal -1 0 0
    outer loop
      vertex 0 57.5 0
      vertex 0 42.3776 14.2275
      vertex 0 42.4863 14.7387
    endloop
  endfacet
  facet normal -1 0 0
    outer loop
      vertex 0 57.5 0
      vertex 0 42.1651 13.75
      vertex 0 42.3776 14.2275
    endloop
  endfacet
  facet normal -1 0 0
    outer loop
      vertex 0 57.5 0
      vertex 0 41.8579 13.3272
      vertex 0 42.1651 13.75
    endloop
  endfacet
  facet normal -1 0 0
    outer loop
      vertex 0 57.5 0
      vertex 0 41.4695 12.9775
      vertex 0 41.8579 13.3272
    endloop
  endfacet
  facet normal -1 0 0
    outer loop
      vertex 0 57.5 0
      vertex 0 41.0168 12.7161
      vertex 0 41.4695 12.9775
    endloop
  endfacet
  facet normal -1 0 0
    outer loop
      vertex 0 57.5 0
      vertex 0 40.5198 12.5546
      vertex 0 41.0168 12.7161
    endloop
  endfacet
  facet normal -1 0 0
    outer loop
      vertex 0 57.5 0
      vertex 0 40 12.5
      vertex 0 40.5198 12.5546
    endloop
  endfacet
  facet normal -1 0 0
    outer loop
      vertex 0 57.5 0
      vertex 0 39.4802 12.5546
      vertex 0 40 12.5
    endloop
  endfacet
  facet normal -1 0 0
    outer loop
      vertex 0 57.5 0
      vertex 0 38.9832 12.7161
      vertex 0 39.4802 12.5546
    endloop
  endfacet
  facet normal -1 0 0
    outer loop
      vertex 0 -38.9832 12.7161
      vertex 0 38.9832 12.7161
      vertex 0 57.5 0
    endloop
  endfacet
  facet normal -1 0 0
    outer loop
      vertex 0 37.5137 14.7387
      vertex 0 -37.5137 14.7387
      vertex 0 37.5137 15.2613
    endloop
  endfacet
  facet normal -1 0 0
    outer loop
      vertex 0 37.6224 14.2275
      vertex 0 -37.5137 14.7387
      vertex 0 37.5137 14.7387
    endloop
  endfacet
  facet normal -1 0 0
    outer loop
      vertex 0 -37.6224 14.2275
      vertex 0 37.6224 14.2275
      vertex 0 37.8349 13.75
    endloop
  endfacet
  facet normal -1 0 0
    outer loop
      vertex 0 -37.8349 13.75
      vertex 0 37.8349 13.75
      vertex 0 38.1421 13.3272
    endloop
  endfacet
  facet normal -1 0 0
    outer loop
      vertex 0 -38.1421 13.3272
      vertex 0 38.1421 13.3272
      vertex 0 38.5305 12.9775
    endloop
  endfacet
  facet normal -1 0 0
    outer loop
      vertex 0 38.9832 12.7161
      vertex 0 -38.9832 12.7161
      vertex 0 38.5305 12.9775
    endloop
  endfacet
  facet normal -1 0 0
    outer loop
      vertex 0 37.6224 14.2275
      vertex 0 -37.6224 14.2275
      vertex 0 -37.5137 14.7387
    endloop
  endfacet
  facet normal -1 0 0
    outer loop
      vertex 0 37.8349 13.75
      vertex 0 -37.8349 13.75
      vertex 0 -37.6224 14.2275
    endloop
  endfacet
  facet normal -1 0 0
    outer loop
      vertex 0 38.1421 13.3272
      vertex 0 -38.1421 13.3272
      vertex 0 -37.8349 13.75
    endloop
  endfacet
  facet normal -1 0 0
    outer loop
      vertex 0 38.5305 12.9775
      vertex 0 -38.5305 12.9775
      vertex 0 -38.1421 13.3272
    endloop
  endfacet
  facet normal -1 -0 0
    outer loop
      vertex 0 38.5305 12.9775
      vertex 0 -38.9832 12.7161
      vertex 0 -38.5305 12.9775
    endloop
  endfacet
  facet normal -1 0 0
    outer loop
      vertex 0 -57.5 0
      vertex 0 -38.9832 12.7161
      vertex 0 57.5 0
    endloop
  endfacet
  facet normal -1 0 0
    outer loop
      vertex 0 -38.9832 12.7161
      vertex 0 -57.5 0
      vertex 0 -39.4802 12.5546
    endloop
  endfacet
  facet normal -1 0 0
    outer loop
      vertex 0 -39.4802 12.5546
      vertex 0 -57.5 0
      vertex 0 -40 12.5
    endloop
  endfacet
  facet normal -1 -0 0
    outer loop
      vertex 0 -42.4863 14.7387
      vertex 0 -57.5 0
      vertex 0 -42.4863 15.2613
    endloop
  endfacet
  facet normal -1 -0 0
    outer loop
      vertex 0 -42.3776 14.2275
      vertex 0 -57.5 0
      vertex 0 -42.4863 14.7387
    endloop
  endfacet
  facet normal -1 -0 0
    outer loop
      vertex 0 -42.1651 13.75
      vertex 0 -57.5 0
      vertex 0 -42.3776 14.2275
    endloop
  endfacet
  facet normal -1 -0 0
    outer loop
      vertex 0 -41.8579 13.3272
      vertex 0 -57.5 0
      vertex 0 -42.1651 13.75
    endloop
  endfacet
  facet normal -1 -0 0
    outer loop
      vertex 0 -41.4695 12.9775
      vertex 0 -57.5 0
      vertex 0 -41.8579 13.3272
    endloop
  endfacet
  facet normal -1 -0 0
    outer loop
      vertex 0 -41.0168 12.7161
      vertex 0 -57.5 0
      vertex 0 -41.4695 12.9775
    endloop
  endfacet
  facet normal -1 -0 0
    outer loop
      vertex 0 -40.5198 12.5546
      vertex 0 -57.5 0
      vertex 0 -41.0168 12.7161
    endloop
  endfacet
  facet normal -1 -0 0
    outer loop
      vertex 0 -40 12.5
      vertex 0 -57.5 0
      vertex 0 -40.5198 12.5546
    endloop
  endfacet
  facet normal -1 0 0
    outer loop
      vertex 0 42.4863 15.2613
      vertex 0 57.5 30
      vertex 0 42.4863 14.7387
    endloop
  endfacet
  facet normal -1 0 0
    outer loop
      vertex 0 42.3776 15.7725
      vertex 0 57.5 30
      vertex 0 42.4863 15.2613
    endloop
  endfacet
  facet normal -1 0 0
    outer loop
      vertex 0 42.1651 16.25
      vertex 0 57.5 30
      vertex 0 42.3776 15.7725
    endloop
  endfacet
  facet normal -1 0 0
    outer loop
      vertex 0 41.8579 16.6728
      vertex 0 57.5 30
      vertex 0 42.1651 16.25
    endloop
  endfacet
  facet normal -1 0 0
    outer loop
      vertex 0 41.4695 17.0225
      vertex 0 57.5 30
      vertex 0 41.8579 16.6728
    endloop
  endfacet
  facet normal -1 0 0
    outer loop
      vertex 0 41.0168 17.2839
      vertex 0 57.5 30
      vertex 0 41.4695 17.0225
    endloop
  endfacet
  facet normal -1 0 0
    outer loop
      vertex 0 40.5198 17.4454
      vertex 0 57.5 30
      vertex 0 41.0168 17.2839
    endloop
  endfacet
  facet normal -1 0 0
    outer loop
      vertex 0 40 17.5
      vertex 0 57.5 30
      vertex 0 40.5198 17.4454
    endloop
  endfacet
  facet normal -1 0 0
    outer loop
      vertex 0 39.4802 17.4454
      vertex 0 57.5 30
      vertex 0 40 17.5
    endloop
  endfacet
  facet normal -1 0 0
    outer loop
      vertex 0 38.9832 17.2839
      vertex 0 57.5 30
      vertex 0 39.4802 17.4454
    endloop
  endfacet
  facet normal -1 0 0
    outer loop
      vertex 0 -38.9832 17.2839
      vertex 0 38.9832 17.2839
      vertex 0 38.5305 17.0225
    endloop
  endfacet
  facet normal -1 0 0
    outer loop
      vertex 0 -37.5137 15.2613
      vertex 0 37.5137 15.2613
      vertex 0 -37.5137 14.7387
    endloop
  endfacet
  facet normal -1 0 0
    outer loop
      vertex 0 37.5137 15.2613
      vertex 0 -37.5137 15.2613
      vertex 0 37.6224 15.7725
    endloop
  endfacet
  facet normal -1 0 0
    outer loop
      vertex 0 -37.6224 15.7725
      vertex 0 37.6224 15.7725
      vertex 0 -37.5137 15.2613
    endloop
  endfacet
  facet normal -1 0 0
    outer loop
      vertex 0 37.6224 15.7725
      vertex 0 -37.6224 15.7725
      vertex 0 37.8349 16.25
    endloop
  endfacet
  facet normal -1 0 0
    outer loop
      vertex 0 -37.8349 16.25
      vertex 0 37.8349 16.25
      vertex 0 -37.6224 15.7725
    endloop
  endfacet
  facet normal -1 0 0
    outer loop
      vertex 0 37.8349 16.25
      vertex 0 -37.8349 16.25
      vertex 0 38.1421 16.6728
    endloop
  endfacet
  facet normal -1 0 0
    outer loop
      vertex 0 -38.1421 16.6728
      vertex 0 38.1421 16.6728
      vertex 0 -37.8349 16.25
    endloop
  endfacet
  facet normal -1 0 0
    outer loop
      vertex 0 38.1421 16.6728
      vertex 0 -38.1421 16.6728
      vertex 0 38.5305 17.0225
    endloop
  endfacet
  facet normal -1 0 0
    outer loop
      vertex 0 -38.5305 17.0225
      vertex 0 38.5305 17.0225
      vertex 0 -38.1421 16.6728
    endloop
  endfacet
  facet normal -1 0 0
    outer loop
      vertex 0 -38.9832 17.2839
      vertex 0 38.5305 17.0225
      vertex 0 -38.5305 17.0225
    endloop
  endfacet
  facet normal -1 0 0
    outer loop
      vertex 0 38.9832 17.2839
      vertex 0 -38.9832 17.2839
      vertex 0 57.5 30
    endloop
  endfacet
  facet normal -1 0 0
    outer loop
      vertex 0 -57.5 30
      vertex 0 -38.9832 17.2839
      vertex 0 -39.4802 17.4454
    endloop
  endfacet
  facet normal -1 0 0
    outer loop
      vertex 0 -57.5 30
      vertex 0 -39.4802 17.4454
      vertex 0 -40 17.5
    endloop
  endfacet
  facet normal -1 0 0
    outer loop
      vertex 0 -57.5 30
      vertex 0 -40 17.5
      vertex 0 -40.5198 17.4454
    endloop
  endfacet
  facet normal -1 0 0
    outer loop
      vertex 0 -57.5 30
      vertex 0 -42.4863 15.2613
      vertex 0 -57.5 0
    endloop
  endfacet
  facet normal -1 0 0
    outer loop
      vertex 0 -42.4863 15.2613
      vertex 0 -57.5 30
      vertex 0 -42.3776 15.7725
    endloop
  endfacet
  facet normal -1 0 0
    outer loop
      vertex 0 -42.3776 15.7725
      vertex 0 -57.5 30
      vertex 0 -42.1651 16.25
    endloop
  endfacet
  facet normal -1 0 0
    outer loop
      vertex 0 -38.9832 17.2839
      vertex 0 -57.5 30
      vertex 0 57.5 30
    endloop
  endfacet
  facet normal -1 0 0
    outer loop
      vertex 0 -41.0168 17.2839
      vertex 0 -57.5 30
      vertex 0 -40.5198 17.4454
    endloop
  endfacet
  facet normal -1 0 0
    outer loop
      vertex 0 -41.4695 17.0225
      vertex 0 -57.5 30
      vertex 0 -41.0168 17.2839
    endloop
  endfacet
  facet normal -1 0 0
    outer loop
      vertex 0 -41.8579 16.6728
      vertex 0 -57.5 30
      vertex 0 -41.4695 17.0225
    endloop
  endfacet
  facet normal -1 0 0
    outer loop
      vertex 0 -42.1651 16.25
      vertex 0 -57.5 30
      vertex 0 -41.8579 16.6728
    endloop
  endfacet
  facet normal -0 0 1
    outer loop
      vertex 0 57.5 30
      vertex 15 27.4264 30
      vertex 15 57.5 30
    endloop
  endfacet
  facet normal 0 0 1
    outer loop
      vertex 15 27.4264 30
      vertex 0 57.5 30
      vertex 15 -27.4264 30
    endloop
  endfacet
  facet normal 0 0 1
    outer loop
      vertex 0 -57.5 30
      vertex 15 -27.4264 30
      vertex 0 57.5 30
    endloop
  endfacet
  facet normal 0 0 1
    outer loop
      vertex 15 -27.4264 30
      vertex 0 -57.5 30
      vertex 15 -57.5 30
    endloop
  endfacet
  facet normal 0 0 1
    outer loop
      vertex 130 10 30
      vertex 150 30 30
      vertex 130 30 30
    endloop
  endfacet
  facet normal 0 0 1
    outer loop
      vertex 150 30 30
      vertex 130 10 30
      vertex 150 -10 30
    endloop
  endfacet
  facet normal 0 0 1
    outer loop
      vertex 32.4264 -10 30
      vertex 130 10 30
      vertex 32.4264 10 30
    endloop
  endfacet
  facet normal 0 0 1
    outer loop
      vertex 130 10 30
      vertex 32.4264 -10 30
      vertex 150 -10 30
    endloop
  endfacet
  facet normal 0 0 1
    outer loop
      vertex 15 27.4264 30
      vertex 32.4264 -10 30
      vertex 32.4264 10 30
    endloop
  endfacet
  facet normal 0 0 1
    outer loop
      vertex 32.4264 -10 30
      vertex 15 27.4264 30
      vertex 15 -27.4264 30
    endloop
  endfacet
  facet normal 1 -0 0
    outer loop
      vertex 150 -10 30
      vertex 150 30 0
      vertex 150 30 30
    endloop
  endfacet
  facet normal 1 0 0
    outer loop
      vertex 150 30 0
      vertex 150 -10 30
      vertex 150 -10 0
    endloop
  endfacet
  facet normal 0 0 -1
    outer loop
      vertex 0 -57.5 0
      vertex 15 -27.4264 0
      vertex 15 -57.5 0
    endloop
  endfacet
  facet normal -0 0 -1
    outer loop
      vertex 15 -27.4264 0
      vertex 0 -57.5 0
      vertex 15 27.4264 0
    endloop
  endfacet
  facet normal 0 0 -1
    outer loop
      vertex 0 57.5 0
      vertex 15 27.4264 0
      vertex 0 -57.5 0
    endloop
  endfacet
  facet normal 0 0 -1
    outer loop
      vertex 15 27.4264 0
      vertex 0 57.5 0
      vertex 15 57.5 0
    endloop
  endfacet
  facet normal 0 0 -1
    outer loop
      vertex 150 -10 0
      vertex 130 10 0
      vertex 150 30 0
    endloop
  endfacet
  facet normal 0 0 -1
    outer loop
      vertex 32.4264 -10 0
      vertex 130 10 0
      vertex 150 -10 0
    endloop
  endfacet
  facet normal 0 0 -1
    outer loop
      vertex 32.4264 -10 0
      vertex 32.4264 10 0
      vertex 130 10 0
    endloop
  endfacet
  facet normal 0 0 -1
    outer loop
      vertex 15 -27.4264 0
      vertex 32.4264 10 0
      vertex 32.4264 -10 0
    endloop
  endfacet
  facet normal -0 0 -1
    outer loop
      vertex 32.4264 10 0
      vertex 15 -27.4264 0
      vertex 15 27.4264 0
    endloop
  endfacet
  facet normal -0 0 -1
    outer loop
      vertex 150 30 0
      vertex 130 10 0
      vertex 130 30 0
    endloop
  endfacet
  facet normal 0 -1 0
    outer loop
      vertex 32.4264 -10 0
      vertex 150 -10 30
      vertex 32.4264 -10 30
    endloop
  endfacet
  facet normal 0 -1 -0
    outer loop
      vertex 150 -10 30
      vertex 32.4264 -10 0
      vertex 150 -10 0
    endloop
  endfacet
  facet normal 0 1 -0
    outer loop
      vertex 130 10 0
      vertex 32.4264 10 30
      vertex 130 10 30
    endloop
  endfacet
  facet normal 0 1 0
    outer loop
      vertex 32.4264 10 30
      vertex 130 10 0
      vertex 32.4264 10 0
    endloop
  endfacet
  facet normal 1 0 0
    outer loop
      vertex 15 -27.4264 30
      vertex 15 -35.1517 15.5096
      vertex 15 -27.4264 0
    endloop
  endfacet
  facet normal 1 0 0
    outer loop
      vertex 15 -27.4264 30
      vertex 15 -35.3636 16.5065
      vertex 15 -35.1517 15.5096
    endloop
  endfacet
  facet normal 1 0 0
    outer loop
      vertex 15 -27.4264 30
      vertex 15 -35.7781 17.4375
      vertex 15 -35.3636 16.5065
    endloop
  endfacet
  facet normal 1 0 0
    outer loop
      vertex 15 -27.4264 30
      vertex 15 -36.3772 18.262
      vertex 15 -35.7781 17.4375
    endloop
  endfacet
  facet normal 1 0 0
    outer loop
      vertex 15 -27.4264 30
      vertex 15 -37.1345 18.944
      vertex 15 -36.3772 18.262
    endloop
  endfacet
  facet normal 1 0 0
    outer loop
      vertex 15 -27.4264 30
      vertex 15 -38.0172 19.4535
      vertex 15 -37.1345 18.944
    endloop
  endfacet
  facet normal 1 0 0
    outer loop
      vertex 15 -27.4264 30
      vertex 15 -38.9864 19.7685
      vertex 15 -38.0172 19.4535
    endloop
  endfacet
  facet normal 1 0 0
    outer loop
      vertex 15 -27.4264 30
      vertex 15 -40 19.875
      vertex 15 -38.9864 19.7685
    endloop
  endfacet
  facet normal 1 0 0
    outer loop
      vertex 15 -27.4264 30
      vertex 15 -41.0136 19.7685
      vertex 15 -40 19.875
    endloop
  endfacet
  facet normal 1 -0 0
    outer loop
      vertex 15 -57.5 30
      vertex 15 -41.0136 19.7685
      vertex 15 -27.4264 30
    endloop
  endfacet
  facet normal 1 0 0
    outer loop
      vertex 15 -41.0136 19.7685
      vertex 15 -57.5 30
      vertex 15 -41.9828 19.4535
    endloop
  endfacet
  facet normal 1 0 0
    outer loop
      vertex 15 -44.8483 15.5096
      vertex 15 -57.5 30
      vertex 15 -44.8483 14.4904
    endloop
  endfacet
  facet normal 1 0 0
    outer loop
      vertex 15 -44.6364 16.5065
      vertex 15 -57.5 30
      vertex 15 -44.8483 15.5096
    endloop
  endfacet
  facet normal 1 0 0
    outer loop
      vertex 15 -44.2219 17.4375
      vertex 15 -57.5 30
      vertex 15 -44.6364 16.5065
    endloop
  endfacet
  facet normal 1 0 0
    outer loop
      vertex 15 -43.6228 18.262
      vertex 15 -57.5 30
      vertex 15 -44.2219 17.4375
    endloop
  endfacet
  facet normal 1 0 0
    outer loop
      vertex 15 -42.8655 18.944
      vertex 15 -57.5 30
      vertex 15 -43.6228 18.262
    endloop
  endfacet
  facet normal 1 0 0
    outer loop
      vertex 15 -41.9828 19.4535
      vertex 15 -57.5 30
      vertex 15 -42.8655 18.944
    endloop
  endfacet
  facet normal 1 -0 0
    outer loop
      vertex 15 -35.1517 14.4904
      vertex 15 -27.4264 0
      vertex 15 -35.1517 15.5096
    endloop
  endfacet
  facet normal 1 -0 0
    outer loop
      vertex 15 -35.3636 13.4935
      vertex 15 -27.4264 0
      vertex 15 -35.1517 14.4904
    endloop
  endfacet
  facet normal 1 -0 0
    outer loop
      vertex 15 -35.7781 12.5625
      vertex 15 -27.4264 0
      vertex 15 -35.3636 13.4935
    endloop
  endfacet
  facet normal 1 -0 0
    outer loop
      vertex 15 -36.3772 11.738
      vertex 15 -27.4264 0
      vertex 15 -35.7781 12.5625
    endloop
  endfacet
  facet normal 1 -0 0
    outer loop
      vertex 15 -37.1345 11.056
      vertex 15 -27.4264 0
      vertex 15 -36.3772 11.738
    endloop
  endfacet
  facet normal 1 -0 0
    outer loop
      vertex 15 -38.0172 10.5465
      vertex 15 -27.4264 0
      vertex 15 -37.1345 11.056
    endloop
  endfacet
  facet normal 1 -0 0
    outer loop
      vertex 15 -38.9864 10.2315
      vertex 15 -27.4264 0
      vertex 15 -38.0172 10.5465
    endloop
  endfacet
  facet normal 1 -0 0
    outer loop
      vertex 15 -40 10.125
      vertex 15 -27.4264 0
      vertex 15 -38.9864 10.2315
    endloop
  endfacet
  facet normal 1 0 0
    outer loop
      vertex 15 -41.0136 10.2315
      vertex 15 -27.4264 0
      vertex 15 -40 10.125
    endloop
  endfacet
  facet normal 1 0 0
    outer loop
      vertex 15 -57.5 0
      vertex 15 -41.0136 10.2315
      vertex 15 -41.9828 10.5465
    endloop
  endfacet
  facet normal 1 0 0
    outer loop
      vertex 15 -57.5 0
      vertex 15 -41.9828 10.5465
      vertex 15 -42.8655 11.056
    endloop
  endfacet
  facet normal 1 0 0
    outer loop
      vertex 15 -57.5 0
      vertex 15 -44.8483 14.4904
      vertex 15 -57.5 30
    endloop
  endfacet
  facet normal 1 0 0
    outer loop
      vertex 15 -44.8483 14.4904
      vertex 15 -57.5 0
      vertex 15 -44.6364 13.4935
    endloop
  endfacet
  facet normal 1 0 0
    outer loop
      vertex 15 -44.6364 13.4935
      vertex 15 -57.5 0
      vertex 15 -44.2219 12.5625
    endloop
  endfacet
  facet normal 1 0 0
    outer loop
      vertex 15 -41.0136 10.2315
      vertex 15 -57.5 0
      vertex 15 -27.4264 0
    endloop
  endfacet
  facet normal 1 0 0
    outer loop
      vertex 15 -43.6228 11.738
      vertex 15 -57.5 0
      vertex 15 -42.8655 11.056
    endloop
  endfacet
  facet normal 1 0 0
    outer loop
      vertex 15 -44.2219 12.5625
      vertex 15 -57.5 0
      vertex 15 -43.6228 11.738
    endloop
  endfacet
  facet normal 1 0 0
    outer loop
      vertex 15 57.5 30
      vertex 15 44.8483 15.5096
      vertex 15 57.5 0
    endloop
  endfacet
  facet normal 1 0 0
    outer loop
      vertex 15 57.5 30
      vertex 15 44.6364 16.5065
      vertex 15 44.8483 15.5096
    endloop
  endfacet
  facet normal 1 0 0
    outer loop
      vertex 15 57.5 30
      vertex 15 44.2219 17.4375
      vertex 15 44.6364 16.5065
    endloop
  endfacet
  facet normal 1 0 0
    outer loop
      vertex 15 57.5 30
      vertex 15 43.6228 18.262
      vertex 15 44.2219 17.4375
    endloop
  endfacet
  facet normal 1 0 0
    outer loop
      vertex 15 57.5 30
      vertex 15 42.8655 18.944
      vertex 15 43.6228 18.262
    endloop
  endfacet
  facet normal 1 0 0
    outer loop
      vertex 15 57.5 30
      vertex 15 41.9828 19.4535
      vertex 15 42.8655 18.944
    endloop
  endfacet
  facet normal 1 0 0
    outer loop
      vertex 15 57.5 30
      vertex 15 41.0136 19.7685
      vertex 15 41.9828 19.4535
    endloop
  endfacet
  facet normal 1 -0 0
    outer loop
      vertex 15 27.4264 30
      vertex 15 41.0136 19.7685
      vertex 15 57.5 30
    endloop
  endfacet
  facet normal 1 0 0
    outer loop
      vertex 15 41.0136 19.7685
      vertex 15 27.4264 30
      vertex 15 40 19.875
    endloop
  endfacet
  facet normal 1 0 0
    outer loop
      vertex 15 40 19.875
      vertex 15 27.4264 30
      vertex 15 38.9864 19.7685
    endloop
  endfacet
  facet normal 1 0 0
    outer loop
      vertex 15 35.1517 15.5096
      vertex 15 27.4264 30
      vertex 15 35.1517 14.4904
    endloop
  endfacet
  facet normal 1 0 0
    outer loop
      vertex 15 35.3636 16.5065
      vertex 15 27.4264 30
      vertex 15 35.1517 15.5096
    endloop
  endfacet
  facet normal 1 0 0
    outer loop
      vertex 15 35.7781 17.4375
      vertex 15 27.4264 30
      vertex 15 35.3636 16.5065
    endloop
  endfacet
  facet normal 1 0 0
    outer loop
      vertex 15 36.3772 18.262
      vertex 15 27.4264 30
      vertex 15 35.7781 17.4375
    endloop
  endfacet
  facet normal 1 0 0
    outer loop
      vertex 15 37.1345 18.944
      vertex 15 27.4264 30
      vertex 15 36.3772 18.262
    endloop
  endfacet
  facet normal 1 0 0
    outer loop
      vertex 15 38.0172 19.4535
      vertex 15 27.4264 30
      vertex 15 37.1345 18.944
    endloop
  endfacet
  facet normal 1 0 0
    outer loop
      vertex 15 38.9864 19.7685
      vertex 15 27.4264 30
      vertex 15 38.0172 19.4535
    endloop
  endfacet
  facet normal 1 -0 0
    outer loop
      vertex 15 44.8483 14.4904
      vertex 15 57.5 0
      vertex 15 44.8483 15.5096
    endloop
  endfacet
  facet normal 1 -0 0
    outer loop
      vertex 15 44.6364 13.4935
      vertex 15 57.5 0
      vertex 15 44.8483 14.4904
    endloop
  endfacet
  facet normal 1 -0 0
    outer loop
      vertex 15 44.2219 12.5625
      vertex 15 57.5 0
      vertex 15 44.6364 13.4935
    endloop
  endfacet
  facet normal 1 -0 0
    outer loop
      vertex 15 43.6228 11.738
      vertex 15 57.5 0
      vertex 15 44.2219 12.5625
    endloop
  endfacet
  facet normal 1 -0 0
    outer loop
      vertex 15 42.8655 11.056
      vertex 15 57.5 0
      vertex 15 43.6228 11.738
    endloop
  endfacet
  facet normal 1 -0 0
    outer loop
      vertex 15 41.9828 10.5465
      vertex 15 57.5 0
      vertex 15 42.8655 11.056
    endloop
  endfacet
  facet normal 1 -0 0
    outer loop
      vertex 15 41.0136 10.2315
      vertex 15 57.5 0
      vertex 15 41.9828 10.5465
    endloop
  endfacet
  facet normal 1 0 0
    outer loop
      vertex 15 27.4264 0
      vertex 15 41.0136 10.2315
      vertex 15 40 10.125
    endloop
  endfacet
  facet normal 1 0 0
    outer loop
      vertex 15 27.4264 0
      vertex 15 40 10.125
      vertex 15 38.9864 10.2315
    endloop
  endfacet
  facet normal 1 0 0
    outer loop
      vertex 15 27.4264 0
      vertex 15 38.9864 10.2315
      vertex 15 38.0172 10.5465
    endloop
  endfacet
  facet normal 1 0 0
    outer loop
      vertex 15 27.4264 0
      vertex 15 35.1517 14.4904
      vertex 15 27.4264 30
    endloop
  endfacet
  facet normal 1 0 0
    outer loop
      vertex 15 35.1517 14.4904
      vertex 15 27.4264 0
      vertex 15 35.3636 13.4935
    endloop
  endfacet
  facet normal 1 0 0
    outer loop
      vertex 15 41.0136 10.2315
      vertex 15 27.4264 0
      vertex 15 57.5 0
    endloop
  endfacet
  facet normal 1 0 0
    outer loop
      vertex 15 37.1345 11.056
      vertex 15 27.4264 0
      vertex 15 38.0172 10.5465
    endloop
  endfacet
  facet normal 1 0 0
    outer loop
      vertex 15 36.3772 11.738
      vertex 15 27.4264 0
      vertex 15 37.1345 11.056
    endloop
  endfacet
  facet normal 1 0 0
    outer loop
      vertex 15 35.7781 12.5625
      vertex 15 27.4264 0
      vertex 15 36.3772 11.738
    endloop
  endfacet
  facet normal 1 0 0
    outer loop
      vertex 15 35.3636 13.4935
      vertex 15 27.4264 0
      vertex 15 35.7781 12.5625
    endloop
  endfacet
  facet normal 0 -1 0
    outer loop
      vertex 0 -57.5 0
      vertex 15 -57.5 30
      vertex 0 -57.5 30
    endloop
  endfacet
  facet normal 0 -1 -0
    outer loop
      vertex 15 -57.5 30
      vertex 0 -57.5 0
      vertex 15 -57.5 0
    endloop
  endfacet
  facet normal 0 1 -0
    outer loop
      vertex 15 57.5 0
      vertex 0 57.5 30
      vertex 15 57.5 30
    endloop
  endfacet
  facet normal 0 1 0
    outer loop
      vertex 0 57.5 30
      vertex 15 57.5 0
      vertex 0 57.5 0
    endloop
  endfacet
  facet normal -1 0 0
    outer loop
      vertex 130 10 0
      vertex 130 30 30
      vertex 130 30 0
    endloop
  endfacet
  facet normal -1 -0 0
    outer loop
      vertex 130 30 30
      vertex 130 10 0
      vertex 130 10 30
    endloop
  endfacet
  facet normal 0 1 -0
    outer loop
      vertex 150 30 0
      vertex 130 30 30
      vertex 150 30 30
    endloop
  endfacet
  facet normal 0 1 0
    outer loop
      vertex 130 30 30
      vertex 150 30 0
      vertex 130 30 0
    endloop
  endfacet
  facet normal 0.707107 0.707107 0
    outer loop
      vertex 32.4264 10 30
      vertex 15 27.4264 0
      vertex 15 27.4264 30
    endloop
  endfacet
  facet normal 0.707107 0.707107 0
    outer loop
      vertex 15 27.4264 0
      vertex 32.4264 10 30
      vertex 32.4264 10 0
    endloop
  endfacet
  facet normal 0.707107 -0.707107 0
    outer loop
      vertex 15 -27.4264 30
      vertex 32.4264 -10 0
      vertex 32.4264 -10 30
    endloop
  endfacet
  facet normal 0.707107 -0.707107 0
    outer loop
      vertex 32.4264 -10 0
      vertex 15 -27.4264 30
      vertex 15 -27.4264 0
    endloop
  endfacet
  facet normal 0 -0.309019 -0.951056
    outer loop
      vertex 0 40.5198 17.4454
      vertex 13.1 41.0168 17.2839
      vertex 13.1 40.5198 17.4454
    endloop
  endfacet
  facet normal -0 -0.309019 -0.951056
    outer loop
      vertex 13.1 41.0168 17.2839
      vertex 0 40.5198 17.4454
      vertex 0 41.0168 17.2839
    endloop
  endfacet
  facet normal 0 -0.978147 0.207916
    outer loop
      vertex 0 42.3776 14.2275
      vertex 13.1 42.4863 14.7387
      vertex 0 42.4863 14.7387
    endloop
  endfacet
  facet normal 0 -0.978147 0.207916
    outer loop
      vertex 13.1 42.4863 14.7387
      vertex 0 42.3776 14.2275
      vertex 13.1 42.3776 14.2275
    endloop
  endfacet
  facet normal 0 -0.913546 -0.406736
    outer loop
      vertex 0 42.3776 15.7725
      vertex 13.1 42.1651 16.25
      vertex 0 42.1651 16.25
    endloop
  endfacet
  facet normal 0 -0.913546 -0.406736
    outer loop
      vertex 13.1 42.1651 16.25
      vertex 0 42.3776 15.7725
      vertex 13.1 42.3776 15.7725
    endloop
  endfacet
  facet normal 0 -0.500001 -0.866025
    outer loop
      vertex 0 41.0168 17.2839
      vertex 13.1 41.4695 17.0225
      vertex 13.1 41.0168 17.2839
    endloop
  endfacet
  facet normal -0 -0.500001 -0.866025
    outer loop
      vertex 13.1 41.4695 17.0225
      vertex 0 41.0168 17.2839
      vertex 0 41.4695 17.0225
    endloop
  endfacet
  facet normal 0 -0.809016 -0.587787
    outer loop
      vertex 0 42.1651 16.25
      vertex 13.1 41.8579 16.6728
      vertex 0 41.8579 16.6728
    endloop
  endfacet
  facet normal 0 -0.809016 -0.587787
    outer loop
      vertex 13.1 41.8579 16.6728
      vertex 0 42.1651 16.25
      vertex 13.1 42.1651 16.25
    endloop
  endfacet
  facet normal -0 0.104527 0.994522
    outer loop
      vertex 0 40 12.5
      vertex 13.1 39.4802 12.5546
      vertex 13.1 40 12.5
    endloop
  endfacet
  facet normal 0 0.104527 0.994522
    outer loop
      vertex 13.1 39.4802 12.5546
      vertex 0 40 12.5
      vertex 0 39.4802 12.5546
    endloop
  endfacet
  facet normal 0 0.978147 0.207916
    outer loop
      vertex 13.1 37.6224 14.2275
      vertex 0 37.5137 14.7387
      vertex 13.1 37.5137 14.7387
    endloop
  endfacet
  facet normal 0 0.978147 0.207916
    outer loop
      vertex 0 37.5137 14.7387
      vertex 13.1 37.6224 14.2275
      vertex 0 37.6224 14.2275
    endloop
  endfacet
  facet normal 0 -0.669132 0.743143
    outer loop
      vertex 0 41.8579 13.3272
      vertex 13.1 41.4695 12.9775
      vertex 13.1 41.8579 13.3272
    endloop
  endfacet
  facet normal 0 -0.669132 0.743143
    outer loop
      vertex 13.1 41.4695 12.9775
      vertex 0 41.8579 13.3272
      vertex 0 41.4695 12.9775
    endloop
  endfacet
  facet normal 0 -0.309017 0.951056
    outer loop
      vertex 0 41.0168 12.7161
      vertex 13.1 40.5198 12.5546
      vertex 13.1 41.0168 12.7161
    endloop
  endfacet
  facet normal 0 -0.309017 0.951056
    outer loop
      vertex 13.1 40.5198 12.5546
      vertex 0 41.0168 12.7161
      vertex 0 40.5198 12.5546
    endloop
  endfacet
  facet normal 0 -0.5 0.866025
    outer loop
      vertex 0 41.4695 12.9775
      vertex 13.1 41.0168 12.7161
      vertex 13.1 41.4695 12.9775
    endloop
  endfacet
  facet normal 0 -0.5 0.866025
    outer loop
      vertex 13.1 41.0168 12.7161
      vertex 0 41.4695 12.9775
      vertex 0 41.0168 12.7161
    endloop
  endfacet
  facet normal 0 -1 0
    outer loop
      vertex 0 42.4863 14.7387
      vertex 13.1 42.4863 15.2613
      vertex 0 42.4863 15.2613
    endloop
  endfacet
  facet normal 0 -1 -0
    outer loop
      vertex 13.1 42.4863 15.2613
      vertex 0 42.4863 14.7387
      vertex 13.1 42.4863 14.7387
    endloop
  endfacet
  facet normal 0 -0.809017 0.587785
    outer loop
      vertex 0 41.8579 13.3272
      vertex 13.1 42.1651 13.75
      vertex 0 42.1651 13.75
    endloop
  endfacet
  facet normal 0 -0.809017 0.587785
    outer loop
      vertex 13.1 42.1651 13.75
      vertex 0 41.8579 13.3272
      vertex 13.1 41.8579 13.3272
    endloop
  endfacet
  facet normal 0 -0.104527 -0.994522
    outer loop
      vertex 0 40 17.5
      vertex 13.1 40.5198 17.4454
      vertex 13.1 40 17.5
    endloop
  endfacet
  facet normal -0 -0.104527 -0.994522
    outer loop
      vertex 13.1 40.5198 17.4454
      vertex 0 40 17.5
      vertex 0 40.5198 17.4454
    endloop
  endfacet
  facet normal 0 -0.669132 -0.743143
    outer loop
      vertex 0 41.4695 17.0225
      vertex 13.1 41.8579 16.6728
      vertex 13.1 41.4695 17.0225
    endloop
  endfacet
  facet normal -0 -0.669132 -0.743143
    outer loop
      vertex 13.1 41.8579 16.6728
      vertex 0 41.4695 17.0225
      vertex 0 41.8579 16.6728
    endloop
  endfacet
  facet normal 0 -0.978147 -0.207916
    outer loop
      vertex 0 42.4863 15.2613
      vertex 13.1 42.3776 15.7725
      vertex 0 42.3776 15.7725
    endloop
  endfacet
  facet normal 0 -0.978147 -0.207916
    outer loop
      vertex 13.1 42.3776 15.7725
      vertex 0 42.4863 15.2613
      vertex 13.1 42.4863 15.2613
    endloop
  endfacet
  facet normal 0 -0.104527 0.994522
    outer loop
      vertex 0 40.5198 12.5546
      vertex 13.1 40 12.5
      vertex 13.1 40.5198 12.5546
    endloop
  endfacet
  facet normal 0 -0.104527 0.994522
    outer loop
      vertex 13.1 40 12.5
      vertex 0 40.5198 12.5546
      vertex 0 40 12.5
    endloop
  endfacet
  facet normal 0 0.809021 0.58778
    outer loop
      vertex 13.1 38.1421 13.3272
      vertex 0 37.8349 13.75
      vertex 13.1 37.8349 13.75
    endloop
  endfacet
  facet normal 0 0.809021 0.58778
    outer loop
      vertex 0 37.8349 13.75
      vertex 13.1 38.1421 13.3272
      vertex 0 38.1421 13.3272
    endloop
  endfacet
  facet normal -0 0.309017 0.951056
    outer loop
      vertex 0 39.4802 12.5546
      vertex 13.1 38.9832 12.7161
      vertex 13.1 39.4802 12.5546
    endloop
  endfacet
  facet normal 0 0.309017 0.951056
    outer loop
      vertex 13.1 38.9832 12.7161
      vertex 0 39.4802 12.5546
      vertex 0 38.9832 12.7161
    endloop
  endfacet
  facet normal 0 0.104527 -0.994522
    outer loop
      vertex 0 39.4802 17.4454
      vertex 13.1 40 17.5
      vertex 13.1 39.4802 17.4454
    endloop
  endfacet
  facet normal 0 0.104527 -0.994522
    outer loop
      vertex 13.1 40 17.5
      vertex 0 39.4802 17.4454
      vertex 0 40 17.5
    endloop
  endfacet
  facet normal 0 -0.913545 0.406737
    outer loop
      vertex 0 42.1651 13.75
      vertex 13.1 42.3776 14.2275
      vertex 0 42.3776 14.2275
    endloop
  endfacet
  facet normal 0 -0.913545 0.406737
    outer loop
      vertex 13.1 42.3776 14.2275
      vertex 0 42.1651 13.75
      vertex 13.1 42.1651 13.75
    endloop
  endfacet
  facet normal 1.26093e-07 0.499999 -0.866026
    outer loop
      vertex 0 38.5305 17.0225
      vertex 13.1 38.9832 17.2839
      vertex 13.1 38.5305 17.0225
    endloop
  endfacet
  facet normal 0 0.500001 -0.866025
    outer loop
      vertex 13.1 38.9832 17.2839
      vertex 0 38.5305 17.0225
      vertex 0 38.9832 17.2839
    endloop
  endfacet
  facet normal 0 0.913545 0.406737
    outer loop
      vertex 13.1 37.8349 13.75
      vertex 0 37.6224 14.2275
      vertex 13.1 37.6224 14.2275
    endloop
  endfacet
  facet normal 0 0.913545 0.406737
    outer loop
      vertex 0 37.6224 14.2275
      vertex 13.1 37.8349 13.75
      vertex 0 37.8349 13.75
    endloop
  endfacet
  facet normal -0 0.669129 0.743146
    outer loop
      vertex 0 38.5305 12.9775
      vertex 13.1 38.1421 13.3272
      vertex 13.1 38.5305 12.9775
    endloop
  endfacet
  facet normal 0 0.669129 0.743146
    outer loop
      vertex 13.1 38.1421 13.3272
      vertex 0 38.5305 12.9775
      vertex 0 38.1421 13.3272
    endloop
  endfacet
  facet normal -0 0.5 0.866025
    outer loop
      vertex 0 38.9832 12.7161
      vertex 13.1 38.5305 12.9775
      vertex 13.1 38.9832 12.7161
    endloop
  endfacet
  facet normal 0 0.5 0.866025
    outer loop
      vertex 13.1 38.5305 12.9775
      vertex 0 38.9832 12.7161
      vertex 0 38.5305 12.9775
    endloop
  endfacet
  facet normal 0 1 -0
    outer loop
      vertex 13.1 37.5137 14.7387
      vertex 0 37.5137 15.2613
      vertex 13.1 37.5137 15.2613
    endloop
  endfacet
  facet normal 0 1 0
    outer loop
      vertex 0 37.5137 15.2613
      vertex 13.1 37.5137 14.7387
      vertex 0 37.5137 14.7387
    endloop
  endfacet
  facet normal 0 0.978147 -0.207916
    outer loop
      vertex 13.1 37.5137 15.2613
      vertex 0 37.6224 15.7725
      vertex 13.1 37.6224 15.7725
    endloop
  endfacet
  facet normal 0 0.978147 -0.207916
    outer loop
      vertex 0 37.6224 15.7725
      vertex 13.1 37.5137 15.2613
      vertex 0 37.5137 15.2613
    endloop
  endfacet
  facet normal 0 0.913546 -0.406736
    outer loop
      vertex 13.1 37.6224 15.7725
      vertex 0 37.8349 16.25
      vertex 13.1 37.8349 16.25
    endloop
  endfacet
  facet normal 0 0.913546 -0.406736
    outer loop
      vertex 0 37.8349 16.25
      vertex 13.1 37.6224 15.7725
      vertex 0 37.6224 15.7725
    endloop
  endfacet
  facet normal 0 0.809019 -0.587782
    outer loop
      vertex 13.1 37.8349 16.25
      vertex 0 38.1421 16.6728
      vertex 13.1 38.1421 16.6728
    endloop
  endfacet
  facet normal 0 0.809019 -0.587782
    outer loop
      vertex 0 38.1421 16.6728
      vertex 13.1 37.8349 16.25
      vertex 0 37.8349 16.25
    endloop
  endfacet
  facet normal 0 0.309019 -0.951056
    outer loop
      vertex 0 38.9832 17.2839
      vertex 13.1 39.4802 17.4454
      vertex 13.1 38.9832 17.2839
    endloop
  endfacet
  facet normal 0 0.309019 -0.951056
    outer loop
      vertex 13.1 39.4802 17.4454
      vertex 0 38.9832 17.2839
      vertex 0 39.4802 17.4454
    endloop
  endfacet
  facet normal -8.66484e-08 0.66913 -0.743145
    outer loop
      vertex 13.1 38.1421 16.6728
      vertex 0 38.1421 16.6728
      vertex 13.1 38.5305 17.0225
    endloop
  endfacet
  facet normal 0 0.669129 -0.743146
    outer loop
      vertex 13.1 38.5305 17.0225
      vertex 0 38.1421 16.6728
      vertex 0 38.5305 17.0225
    endloop
  endfacet
  facet normal 0.779191 -0.0655162 0.623353
    outer loop
      vertex 13.1 40 12.5
      vertex 15 41.0136 10.2315
      vertex 13.1 40.5198 12.5546
    endloop
  endfacet
  facet normal 0.779191 -0.0655169 0.623353
    outer loop
      vertex 15 41.0136 10.2315
      vertex 13.1 40 12.5
      vertex 15 40 10.125
    endloop
  endfacet
  facet normal 0.779191 -0.0655175 -0.623353
    outer loop
      vertex 15 40 19.875
      vertex 13.1 40.5198 17.4454
      vertex 15 41.0136 19.7685
    endloop
  endfacet
  facet normal 0.779191 -0.0655162 -0.623353
    outer loop
      vertex 13.1 40.5198 17.4454
      vertex 15 40 19.875
      vertex 13.1 40 17.5
    endloop
  endfacet
  facet normal 0.779191 0.193688 0.596109
    outer loop
      vertex 13.1 38.9832 12.7161
      vertex 15 38.9864 10.2315
      vertex 13.1 39.4802 12.5546
    endloop
  endfacet
  facet normal 0.779191 0.193688 0.596109
    outer loop
      vertex 15 38.9864 10.2315
      vertex 13.1 38.9832 12.7161
      vertex 15 38.0172 10.5465
    endloop
  endfacet
  facet normal 0.779191 -0.626787 0
    outer loop
      vertex 13.1 42.4863 15.2613
      vertex 15 44.8483 14.4904
      vertex 15 44.8483 15.5096
    endloop
  endfacet
  facet normal 0.779191 -0.626787 0
    outer loop
      vertex 15 44.8483 14.4904
      vertex 13.1 42.4863 15.2613
      vertex 13.1 42.4863 14.7387
    endloop
  endfacet
  facet normal 0.779191 0.572598 -0.254937
    outer loop
      vertex 15 35.7781 17.4375
      vertex 13.1 37.6224 15.7725
      vertex 13.1 37.8349 16.25
    endloop
  endfacet
  facet normal 0.779191 0.572597 -0.254938
    outer loop
      vertex 13.1 37.6224 15.7725
      vertex 15 35.7781 17.4375
      vertex 15 35.3636 16.5065
    endloop
  endfacet
  facet normal 0.779191 -0.507081 -0.368415
    outer loop
      vertex 15 43.6228 18.262
      vertex 13.1 42.1651 16.25
      vertex 15 44.2219 17.4375
    endloop
  endfacet
  facet normal 0.779191 -0.507082 -0.368414
    outer loop
      vertex 13.1 41.8579 16.6728
      vertex 13.1 42.1651 16.25
      vertex 15 43.6228 18.262
    endloop
  endfacet
  facet normal 0.779191 -0.419401 0.465794
    outer loop
      vertex 13.1 41.8579 13.3272
      vertex 15 42.8655 11.056
      vertex 15 43.6228 11.738
    endloop
  endfacet
  facet normal 0.779191 -0.419403 0.465792
    outer loop
      vertex 15 42.8655 11.056
      vertex 13.1 41.8579 13.3272
      vertex 13.1 41.4695 12.9775
    endloop
  endfacet
  facet normal 0.779191 0.572598 0.254937
    outer loop
      vertex 13.1 37.6224 14.2275
      vertex 15 35.7781 12.5625
      vertex 13.1 37.8349 13.75
    endloop
  endfacet
  facet normal 0.779191 0.572597 0.254938
    outer loop
      vertex 15 35.7781 12.5625
      vertex 13.1 37.6224 14.2275
      vertex 15 35.3636 13.4935
    endloop
  endfacet
  facet normal 0.779191 0.313392 -0.542813
    outer loop
      vertex 15 38.0172 19.4535
      vertex 13.1 38.5305 17.0225
      vertex 13.1 38.9832 17.2839
    endloop
  endfacet
  facet normal 0.779191 0.313393 -0.542813
    outer loop
      vertex 13.1 38.5305 17.0225
      vertex 15 38.0172 19.4535
      vertex 15 37.1345 18.944
    endloop
  endfacet
  facet normal 0.779191 -0.313394 -0.542813
    outer loop
      vertex 15 41.9828 19.4535
      vertex 13.1 41.4695 17.0225
      vertex 15 42.8655 18.944
    endloop
  endfacet
  facet normal 0.779191 -0.313394 -0.542813
    outer loop
      vertex 13.1 41.4695 17.0225
      vertex 15 41.9828 19.4535
      vertex 13.1 41.0168 17.2839
    endloop
  endfacet
  facet normal 0.779191 -0.61309 -0.130315
    outer loop
      vertex 15 44.6364 16.5065
      vertex 13.1 42.4863 15.2613
      vertex 15 44.8483 15.5096
    endloop
  endfacet
  facet normal 0.779191 -0.613089 -0.130317
    outer loop
      vertex 13.1 42.4863 15.2613
      vertex 15 44.6364 16.5065
      vertex 13.1 42.3776 15.7725
    endloop
  endfacet
  facet normal 0.779191 -0.572597 0.254938
    outer loop
      vertex 13.1 42.3776 14.2275
      vertex 15 44.2219 12.5625
      vertex 15 44.6364 13.4935
    endloop
  endfacet
  facet normal 0.779191 -0.572598 0.254937
    outer loop
      vertex 15 44.2219 12.5625
      vertex 13.1 42.3776 14.2275
      vertex 13.1 42.1651 13.75
    endloop
  endfacet
  facet normal 0.779191 -0.313394 0.542813
    outer loop
      vertex 13.1 41.4695 12.9775
      vertex 15 41.9828 10.5465
      vertex 15 42.8655 11.056
    endloop
  endfacet
  facet normal 0.779191 -0.313393 0.542813
    outer loop
      vertex 15 41.9828 10.5465
      vertex 13.1 41.4695 12.9775
      vertex 13.1 41.0168 12.7161
    endloop
  endfacet
  facet normal 0.779191 -0.193687 -0.59611
    outer loop
      vertex 15 41.0136 19.7685
      vertex 13.1 41.0168 17.2839
      vertex 15 41.9828 19.4535
    endloop
  endfacet
  facet normal 0.779191 -0.193688 -0.59611
    outer loop
      vertex 13.1 41.0168 17.2839
      vertex 15 41.0136 19.7685
      vertex 13.1 40.5198 17.4454
    endloop
  endfacet
  facet normal 0.779191 -0.419401 -0.465794
    outer loop
      vertex 15 42.8655 18.944
      vertex 13.1 41.8579 16.6728
      vertex 15 43.6228 18.262
    endloop
  endfacet
  facet normal 0.779191 -0.419402 -0.465793
    outer loop
      vertex 13.1 41.8579 16.6728
      vertex 15 42.8655 18.944
      vertex 13.1 41.4695 17.0225
    endloop
  endfacet
  facet normal 0.779191 -0.572597 -0.254938
    outer loop
      vertex 15 44.2219 17.4375
      vertex 13.1 42.3776 15.7725
      vertex 15 44.6364 16.5065
    endloop
  endfacet
  facet normal 0.779191 -0.572597 -0.254938
    outer loop
      vertex 13.1 42.3776 15.7725
      vertex 15 44.2219 17.4375
      vertex 13.1 42.1651 16.25
    endloop
  endfacet
  facet normal 0.779191 -0.61309 0.130315
    outer loop
      vertex 13.1 42.4863 14.7387
      vertex 15 44.6364 13.4935
      vertex 15 44.8483 14.4904
    endloop
  endfacet
  facet normal 0.779192 -0.613089 0.130319
    outer loop
      vertex 15 44.6364 13.4935
      vertex 13.1 42.4863 14.7387
      vertex 13.1 42.3776 14.2275
    endloop
  endfacet
  facet normal 0.779191 -0.507081 0.368415
    outer loop
      vertex 13.1 42.1651 13.75
      vertex 15 43.6228 11.738
      vertex 15 44.2219 12.5625
    endloop
  endfacet
  facet normal 0.779191 -0.507081 0.368415
    outer loop
      vertex 15 43.6228 11.738
      vertex 13.1 42.1651 13.75
      vertex 13.1 41.8579 13.3272
    endloop
  endfacet
  facet normal 0.779191 -0.193688 0.596109
    outer loop
      vertex 13.1 41.0168 12.7161
      vertex 15 41.0136 10.2315
      vertex 15 41.9828 10.5465
    endloop
  endfacet
  facet normal 0.779191 -0.193688 0.596109
    outer loop
      vertex 15 41.0136 10.2315
      vertex 13.1 41.0168 12.7161
      vertex 13.1 40.5198 12.5546
    endloop
  endfacet
  facet normal 0.779191 0.0655162 0.623353
    outer loop
      vertex 13.1 39.4802 12.5546
      vertex 15 40 10.125
      vertex 13.1 40 12.5
    endloop
  endfacet
  facet normal 0.779191 0.0655169 0.623353
    outer loop
      vertex 15 40 10.125
      vertex 13.1 39.4802 12.5546
      vertex 15 38.9864 10.2315
    endloop
  endfacet
  facet normal 0.779191 0.419401 0.465794
    outer loop
      vertex 13.1 38.1421 13.3272
      vertex 15 37.1345 11.056
      vertex 13.1 38.5305 12.9775
    endloop
  endfacet
  facet normal 0.779191 0.419402 0.465793
    outer loop
      vertex 15 37.1345 11.056
      vertex 13.1 38.1421 13.3272
      vertex 15 36.3772 11.738
    endloop
  endfacet
  facet normal 0.779191 0.313393 0.542813
    outer loop
      vertex 13.1 38.5305 12.9775
      vertex 15 38.0172 10.5465
      vertex 13.1 38.9832 12.7161
    endloop
  endfacet
  facet normal 0.779191 0.313392 0.542813
    outer loop
      vertex 15 38.0172 10.5465
      vertex 13.1 38.5305 12.9775
      vertex 15 37.1345 11.056
    endloop
  endfacet
  facet normal 0.779191 0.507083 0.368413
    outer loop
      vertex 13.1 37.8349 13.75
      vertex 15 36.3772 11.738
      vertex 13.1 38.1421 13.3272
    endloop
  endfacet
  facet normal 0.779191 0.507081 0.368415
    outer loop
      vertex 15 36.3772 11.738
      vertex 13.1 37.8349 13.75
      vertex 15 35.7781 12.5625
    endloop
  endfacet
  facet normal 0.779191 0.626787 0
    outer loop
      vertex 15 35.1517 15.5096
      vertex 13.1 37.5137 14.7387
      vertex 13.1 37.5137 15.2613
    endloop
  endfacet
  facet normal 0.779191 0.626787 0
    outer loop
      vertex 13.1 37.5137 14.7387
      vertex 15 35.1517 15.5096
      vertex 15 35.1517 14.4904
    endloop
  endfacet
  facet normal 0.779192 0.613089 0.130319
    outer loop
      vertex 13.1 37.5137 14.7387
      vertex 15 35.3636 13.4935
      vertex 13.1 37.6224 14.2275
    endloop
  endfacet
  facet normal 0.779191 0.61309 0.130315
    outer loop
      vertex 15 35.3636 13.4935
      vertex 13.1 37.5137 14.7387
      vertex 15 35.1517 14.4904
    endloop
  endfacet
  facet normal 0.779192 0.613089 -0.130319
    outer loop
      vertex 15 35.3636 16.5065
      vertex 13.1 37.5137 15.2613
      vertex 13.1 37.6224 15.7725
    endloop
  endfacet
  facet normal 0.779191 0.61309 -0.130315
    outer loop
      vertex 13.1 37.5137 15.2613
      vertex 15 35.3636 16.5065
      vertex 15 35.1517 15.5096
    endloop
  endfacet
  facet normal 0.779191 0.419403 -0.465792
    outer loop
      vertex 15 37.1345 18.944
      vertex 13.1 38.1421 16.6728
      vertex 13.1 38.5305 17.0225
    endloop
  endfacet
  facet normal 0.779191 0.419402 -0.465793
    outer loop
      vertex 13.1 38.1421 16.6728
      vertex 15 37.1345 18.944
      vertex 15 36.3772 18.262
    endloop
  endfacet
  facet normal 0.779191 0.507082 -0.368414
    outer loop
      vertex 15 36.3772 18.262
      vertex 13.1 37.8349 16.25
      vertex 13.1 38.1421 16.6728
    endloop
  endfacet
  facet normal 0.779191 0.507081 -0.368415
    outer loop
      vertex 13.1 37.8349 16.25
      vertex 15 36.3772 18.262
      vertex 15 35.7781 17.4375
    endloop
  endfacet
  facet normal 0.779191 0.0655162 -0.623353
    outer loop
      vertex 15 40 19.875
      vertex 13.1 39.4802 17.4454
      vertex 13.1 40 17.5
    endloop
  endfacet
  facet normal 0.779191 0.0655175 -0.623353
    outer loop
      vertex 13.1 39.4802 17.4454
      vertex 15 40 19.875
      vertex 15 38.9864 19.7685
    endloop
  endfacet
  facet normal 0.779191 0.193689 -0.596109
    outer loop
      vertex 15 38.9864 19.7685
      vertex 13.1 38.9832 17.2839
      vertex 13.1 39.4802 17.4454
    endloop
  endfacet
  facet normal 0.779191 0.193687 -0.59611
    outer loop
      vertex 13.1 38.9832 17.2839
      vertex 15 38.9864 19.7685
      vertex 15 38.0172 19.4535
    endloop
  endfacet
  facet normal 0 -0.104527 0.994522
    outer loop
      vertex 0 -39.4802 12.5546
      vertex 13.1 -40 12.5
      vertex 13.1 -39.4802 12.5546
    endloop
  endfacet
  facet normal 0 -0.104527 0.994522
    outer loop
      vertex 13.1 -40 12.5
      vertex 0 -39.4802 12.5546
      vertex 0 -40 12.5
    endloop
  endfacet
  facet normal 0 -0.104527 -0.994522
    outer loop
      vertex 0 -40 17.5
      vertex 13.1 -39.4802 17.4454
      vertex 13.1 -40 17.5
    endloop
  endfacet
  facet normal -0 -0.104527 -0.994522
    outer loop
      vertex 13.1 -39.4802 17.4454
      vertex 0 -40 17.5
      vertex 0 -39.4802 17.4454
    endloop
  endfacet
  facet normal 0 1 -0
    outer loop
      vertex 13.1 -42.4863 14.7387
      vertex 0 -42.4863 15.2613
      vertex 13.1 -42.4863 15.2613
    endloop
  endfacet
  facet normal 0 1 0
    outer loop
      vertex 0 -42.4863 15.2613
      vertex 13.1 -42.4863 14.7387
      vertex 0 -42.4863 14.7387
    endloop
  endfacet
  facet normal 0 -0.66913 -0.743145
    outer loop
      vertex 0 -38.5305 17.0225
      vertex 13.1 -38.1421 16.6728
      vertex 13.1 -38.5305 17.0225
    endloop
  endfacet
  facet normal -8.66477e-08 -0.669129 -0.743146
    outer loop
      vertex 0 -38.1421 16.6728
      vertex 13.1 -38.1421 16.6728
      vertex 0 -38.5305 17.0225
    endloop
  endfacet
  facet normal 0 -0.913546 -0.406736
    outer loop
      vertex 0 -37.6224 15.7725
      vertex 13.1 -37.8349 16.25
      vertex 0 -37.8349 16.25
    endloop
  endfacet
  facet normal 0 -0.913546 -0.406736
    outer loop
      vertex 13.1 -37.8349 16.25
      vertex 0 -37.6224 15.7725
      vertex 13.1 -37.6224 15.7725
    endloop
  endfacet
  facet normal -0 0.5 0.866025
    outer loop
      vertex 0 -41.0168 12.7161
      vertex 13.1 -41.4695 12.9775
      vertex 13.1 -41.0168 12.7161
    endloop
  endfacet
  facet normal 0 0.5 0.866025
    outer loop
      vertex 13.1 -41.4695 12.9775
      vertex 0 -41.0168 12.7161
      vertex 0 -41.4695 12.9775
    endloop
  endfacet
  facet normal 0 -0.309017 0.951056
    outer loop
      vertex 0 -38.9832 12.7161
      vertex 13.1 -39.4802 12.5546
      vertex 13.1 -38.9832 12.7161
    endloop
  endfacet
  facet normal 0 -0.309017 0.951056
    outer loop
      vertex 13.1 -39.4802 12.5546
      vertex 0 -38.9832 12.7161
      vertex 0 -39.4802 12.5546
    endloop
  endfacet
  facet normal 0 -0.669129 0.743146
    outer loop
      vertex 0 -38.1421 13.3272
      vertex 13.1 -38.5305 12.9775
      vertex 13.1 -38.1421 13.3272
    endloop
  endfacet
  facet normal 0 -0.669129 0.743146
    outer loop
      vertex 13.1 -38.5305 12.9775
      vertex 0 -38.1421 13.3272
      vertex 0 -38.5305 12.9775
    endloop
  endfacet
  facet normal 0 -0.978147 0.207916
    outer loop
      vertex 0 -37.6224 14.2275
      vertex 13.1 -37.5137 14.7387
      vertex 0 -37.5137 14.7387
    endloop
  endfacet
  facet normal 0 -0.978147 0.207916
    outer loop
      vertex 13.1 -37.5137 14.7387
      vertex 0 -37.6224 14.2275
      vertex 13.1 -37.6224 14.2275
    endloop
  endfacet
  facet normal 0 -0.809021 0.58778
    outer loop
      vertex 0 -38.1421 13.3272
      vertex 13.1 -37.8349 13.75
      vertex 0 -37.8349 13.75
    endloop
  endfacet
  facet normal 0 -0.809021 0.58778
    outer loop
      vertex 13.1 -37.8349 13.75
      vertex 0 -38.1421 13.3272
      vertex 13.1 -38.1421 13.3272
    endloop
  endfacet
  facet normal 0 -0.500001 -0.866025
    outer loop
      vertex 0 -38.9832 17.2839
      vertex 13.1 -38.5305 17.0225
      vertex 13.1 -38.9832 17.2839
    endloop
  endfacet
  facet normal -0 -0.500001 -0.866025
    outer loop
      vertex 13.1 -38.5305 17.0225
      vertex 0 -38.9832 17.2839
      vertex 0 -38.5305 17.0225
    endloop
  endfacet
  facet normal 0 -0.309019 -0.951056
    outer loop
      vertex 0 -39.4802 17.4454
      vertex 13.1 -38.9832 17.2839
      vertex 13.1 -39.4802 17.4454
    endloop
  endfacet
  facet normal -0 -0.309019 -0.951056
    outer loop
      vertex 13.1 -38.9832 17.2839
      vertex 0 -39.4802 17.4454
      vertex 0 -38.9832 17.2839
    endloop
  endfacet
  facet normal 0 -0.809019 -0.587782
    outer loop
      vertex 0 -37.8349 16.25
      vertex 13.1 -38.1421 16.6728
      vertex 0 -38.1421 16.6728
    endloop
  endfacet
  facet normal 0 -0.809019 -0.587782
    outer loop
      vertex 13.1 -38.1421 16.6728
      vertex 0 -37.8349 16.25
      vertex 13.1 -37.8349 16.25
    endloop
  endfacet
  facet normal 0 -0.978147 -0.207916
    outer loop
      vertex 0 -37.5137 15.2613
      vertex 13.1 -37.6224 15.7725
      vertex 0 -37.6224 15.7725
    endloop
  endfacet
  facet normal 0 -0.978147 -0.207916
    outer loop
      vertex 13.1 -37.6224 15.7725
      vertex 0 -37.5137 15.2613
      vertex 13.1 -37.5137 15.2613
    endloop
  endfacet
  facet normal -0 0.104527 0.994522
    outer loop
      vertex 0 -40 12.5
      vertex 13.1 -40.5198 12.5546
      vertex 13.1 -40 12.5
    endloop
  endfacet
  facet normal 0 0.104527 0.994522
    outer loop
      vertex 13.1 -40.5198 12.5546
      vertex 0 -40 12.5
      vertex 0 -40.5198 12.5546
    endloop
  endfacet
  facet normal 0 -0.5 0.866025
    outer loop
      vertex 0 -38.5305 12.9775
      vertex 13.1 -38.9832 12.7161
      vertex 13.1 -38.5305 12.9775
    endloop
  endfacet
  facet normal 0 -0.5 0.866025
    outer loop
      vertex 13.1 -38.9832 12.7161
      vertex 0 -38.5305 12.9775
      vertex 0 -38.9832 12.7161
    endloop
  endfacet
  facet normal 0 -1 0
    outer loop
      vertex 0 -37.5137 14.7387
      vertex 13.1 -37.5137 15.2613
      vertex 0 -37.5137 15.2613
    endloop
  endfacet
  facet normal 0 -1 -0
    outer loop
      vertex 13.1 -37.5137 15.2613
      vertex 0 -37.5137 14.7387
      vertex 13.1 -37.5137 14.7387
    endloop
  endfacet
  facet normal 0 -0.913545 0.406737
    outer loop
      vertex 0 -37.8349 13.75
      vertex 13.1 -37.6224 14.2275
      vertex 0 -37.6224 14.2275
    endloop
  endfacet
  facet normal 0 -0.913545 0.406737
    outer loop
      vertex 13.1 -37.6224 14.2275
      vertex 0 -37.8349 13.75
      vertex 13.1 -37.8349 13.75
    endloop
  endfacet
  facet normal 0 0.809017 0.587785
    outer loop
      vertex 13.1 -41.8579 13.3272
      vertex 0 -42.1651 13.75
      vertex 13.1 -42.1651 13.75
    endloop
  endfacet
  facet normal 0 0.809017 0.587785
    outer loop
      vertex 0 -42.1651 13.75
      vertex 13.1 -41.8579 13.3272
      vertex 0 -41.8579 13.3272
    endloop
  endfacet
  facet normal -0 0.669132 0.743143
    outer loop
      vertex 0 -41.4695 12.9775
      vertex 13.1 -41.8579 13.3272
      vertex 13.1 -41.4695 12.9775
    endloop
  endfacet
  facet normal 0 0.669132 0.743143
    outer loop
      vertex 13.1 -41.8579 13.3272
      vertex 0 -41.4695 12.9775
      vertex 0 -41.8579 13.3272
    endloop
  endfacet
  facet normal -0 0.309017 0.951056
    outer loop
      vertex 0 -40.5198 12.5546
      vertex 13.1 -41.0168 12.7161
      vertex 13.1 -40.5198 12.5546
    endloop
  endfacet
  facet normal 0 0.309017 0.951056
    outer loop
      vertex 13.1 -41.0168 12.7161
      vertex 0 -40.5198 12.5546
      vertex 0 -41.0168 12.7161
    endloop
  endfacet
  facet normal 1.08201e-07 0.66913 -0.743145
    outer loop
      vertex 0 -41.8579 16.6728
      vertex 13.1 -41.4695 17.0225
      vertex 13.1 -41.8579 16.6728
    endloop
  endfacet
  facet normal 0 0.669132 -0.743143
    outer loop
      vertex 13.1 -41.4695 17.0225
      vertex 0 -41.8579 16.6728
      vertex 0 -41.4695 17.0225
    endloop
  endfacet
  facet normal 0 0.978147 0.207916
    outer loop
      vertex 13.1 -42.3776 14.2275
      vertex 0 -42.4863 14.7387
      vertex 13.1 -42.4863 14.7387
    endloop
  endfacet
  facet normal 0 0.978147 0.207916
    outer loop
      vertex 0 -42.4863 14.7387
      vertex 13.1 -42.3776 14.2275
      vertex 0 -42.3776 14.2275
    endloop
  endfacet
  facet normal 0 0.978147 -0.207916
    outer loop
      vertex 13.1 -42.4863 15.2613
      vertex 0 -42.3776 15.7725
      vertex 13.1 -42.3776 15.7725
    endloop
  endfacet
  facet normal 0 0.978147 -0.207916
    outer loop
      vertex 0 -42.3776 15.7725
      vertex 13.1 -42.4863 15.2613
      vertex 0 -42.4863 15.2613
    endloop
  endfacet
  facet normal 0 0.500001 -0.866025
    outer loop
      vertex 0 -41.4695 17.0225
      vertex 13.1 -41.0168 17.2839
      vertex 13.1 -41.4695 17.0225
    endloop
  endfacet
  facet normal 0 0.500001 -0.866025
    outer loop
      vertex 13.1 -41.0168 17.2839
      vertex 0 -41.4695 17.0225
      vertex 0 -41.0168 17.2839
    endloop
  endfacet
  facet normal 0 0.309019 -0.951056
    outer loop
      vertex 0 -41.0168 17.2839
      vertex 13.1 -40.5198 17.4454
      vertex 13.1 -41.0168 17.2839
    endloop
  endfacet
  facet normal 0 0.309019 -0.951056
    outer loop
      vertex 13.1 -40.5198 17.4454
      vertex 0 -41.0168 17.2839
      vertex 0 -40.5198 17.4454
    endloop
  endfacet
  facet normal 0 0.104527 -0.994522
    outer loop
      vertex 0 -40.5198 17.4454
      vertex 13.1 -40 17.5
      vertex 13.1 -40.5198 17.4454
    endloop
  endfacet
  facet normal 0 0.104527 -0.994522
    outer loop
      vertex 13.1 -40 17.5
      vertex 0 -40.5198 17.4454
      vertex 0 -40 17.5
    endloop
  endfacet
  facet normal 0 0.913545 0.406737
    outer loop
      vertex 13.1 -42.1651 13.75
      vertex 0 -42.3776 14.2275
      vertex 13.1 -42.3776 14.2275
    endloop
  endfacet
  facet normal 0 0.913545 0.406737
    outer loop
      vertex 0 -42.3776 14.2275
      vertex 13.1 -42.1651 13.75
      vertex 0 -42.1651 13.75
    endloop
  endfacet
  facet normal 0 0.913546 -0.406736
    outer loop
      vertex 13.1 -42.3776 15.7725
      vertex 0 -42.1651 16.25
      vertex 13.1 -42.1651 16.25
    endloop
  endfacet
  facet normal 0 0.913546 -0.406736
    outer loop
      vertex 0 -42.1651 16.25
      vertex 13.1 -42.3776 15.7725
      vertex 0 -42.3776 15.7725
    endloop
  endfacet
  facet normal 0 0.809016 -0.587787
    outer loop
      vertex 13.1 -42.1651 16.25
      vertex 0 -41.8579 16.6728
      vertex 13.1 -41.8579 16.6728
    endloop
  endfacet
  facet normal 0 0.809016 -0.587787
    outer loop
      vertex 0 -41.8579 16.6728
      vertex 13.1 -42.1651 16.25
      vertex 0 -42.1651 16.25
    endloop
  endfacet
  facet normal 0.779191 -0.0655162 0.623353
    outer loop
      vertex 13.1 -40 12.5
      vertex 15 -38.9864 10.2315
      vertex 13.1 -39.4802 12.5546
    endloop
  endfacet
  facet normal 0.779191 -0.0655169 0.623353
    outer loop
      vertex 15 -38.9864 10.2315
      vertex 13.1 -40 12.5
      vertex 15 -40 10.125
    endloop
  endfacet
  facet normal 0.779191 -0.0655175 -0.623353
    outer loop
      vertex 15 -40 19.875
      vertex 13.1 -39.4802 17.4454
      vertex 15 -38.9864 19.7685
    endloop
  endfacet
  facet normal 0.779191 -0.0655162 -0.623353
    outer loop
      vertex 13.1 -39.4802 17.4454
      vertex 15 -40 19.875
      vertex 13.1 -40 17.5
    endloop
  endfacet
  facet normal 0.779191 0.0655162 0.623353
    outer loop
      vertex 13.1 -40.5198 12.5546
      vertex 15 -40 10.125
      vertex 13.1 -40 12.5
    endloop
  endfacet
  facet normal 0.779191 0.0655169 0.623353
    outer loop
      vertex 15 -40 10.125
      vertex 13.1 -40.5198 12.5546
      vertex 15 -41.0136 10.2315
    endloop
  endfacet
  facet normal 0.779191 -0.626787 0
    outer loop
      vertex 13.1 -37.5137 15.2613
      vertex 15 -35.1517 14.4904
      vertex 15 -35.1517 15.5096
    endloop
  endfacet
  facet normal 0.779191 -0.626787 0
    outer loop
      vertex 15 -35.1517 14.4904
      vertex 13.1 -37.5137 15.2613
      vertex 13.1 -37.5137 14.7387
    endloop
  endfacet
  facet normal 0.779192 0.613089 -0.130319
    outer loop
      vertex 15 -44.6364 16.5065
      vertex 13.1 -42.4863 15.2613
      vertex 13.1 -42.3776 15.7725
    endloop
  endfacet
  facet normal 0.779191 0.61309 -0.130315
    outer loop
      vertex 13.1 -42.4863 15.2613
      vertex 15 -44.6364 16.5065
      vertex 15 -44.8483 15.5096
    endloop
  endfacet
  facet normal 0.779191 -0.419402 -0.465793
    outer loop
      vertex 15 -37.1345 18.944
      vertex 13.1 -38.1421 16.6728
      vertex 15 -36.3772 18.262
    endloop
  endfacet
  facet normal 0.779191 -0.419403 -0.465792
    outer loop
      vertex 13.1 -38.5305 17.0225
      vertex 13.1 -38.1421 16.6728
      vertex 15 -37.1345 18.944
    endloop
  endfacet
  facet normal 0.779191 -0.419402 0.465793
    outer loop
      vertex 13.1 -38.1421 13.3272
      vertex 15 -37.1345 11.056
      vertex 15 -36.3772 11.738
    endloop
  endfacet
  facet normal 0.779191 -0.419401 0.465794
    outer loop
      vertex 15 -37.1345 11.056
      vertex 13.1 -38.1421 13.3272
      vertex 13.1 -38.5305 12.9775
    endloop
  endfacet
  facet normal 0.779191 0.507081 0.368415
    outer loop
      vertex 13.1 -42.1651 13.75
      vertex 15 -43.6228 11.738
      vertex 13.1 -41.8579 13.3272
    endloop
  endfacet
  facet normal 0.779191 0.507081 0.368415
    outer loop
      vertex 15 -43.6228 11.738
      vertex 13.1 -42.1651 13.75
      vertex 15 -44.2219 12.5625
    endloop
  endfacet
  facet normal 0.779191 0.419402 -0.465793
    outer loop
      vertex 15 -42.8655 18.944
      vertex 13.1 -41.8579 16.6728
      vertex 13.1 -41.4695 17.0225
    endloop
  endfacet
  facet normal 0.779191 0.419401 -0.465794
    outer loop
      vertex 13.1 -41.8579 16.6728
      vertex 15 -42.8655 18.944
      vertex 15 -43.6228 18.262
    endloop
  endfacet
  facet normal 0.779191 -0.313393 -0.542813
    outer loop
      vertex 15 -38.0172 19.4535
      vertex 13.1 -38.5305 17.0225
      vertex 15 -37.1345 18.944
    endloop
  endfacet
  facet normal 0.779191 -0.313392 -0.542813
    outer loop
      vertex 13.1 -38.5305 17.0225
      vertex 15 -38.0172 19.4535
      vertex 13.1 -38.9832 17.2839
    endloop
  endfacet
  facet normal 0.779191 -0.572597 -0.254938
    outer loop
      vertex 15 -35.7781 17.4375
      vertex 13.1 -37.6224 15.7725
      vertex 15 -35.3636 16.5065
    endloop
  endfacet
  facet normal 0.779191 -0.572598 -0.254937
    outer loop
      vertex 13.1 -37.6224 15.7725
      vertex 15 -35.7781 17.4375
      vertex 13.1 -37.8349 16.25
    endloop
  endfacet
  facet normal 0.779191 -0.572597 0.254938
    outer loop
      vertex 13.1 -37.6224 14.2275
      vertex 15 -35.7781 12.5625
      vertex 15 -35.3636 13.4935
    endloop
  endfacet
  facet normal 0.779191 -0.572598 0.254937
    outer loop
      vertex 15 -35.7781 12.5625
      vertex 13.1 -37.6224 14.2275
      vertex 13.1 -37.8349 13.75
    endloop
  endfacet
  facet normal 0.779191 -0.313392 0.542813
    outer loop
      vertex 13.1 -38.5305 12.9775
      vertex 15 -38.0172 10.5465
      vertex 15 -37.1345 11.056
    endloop
  endfacet
  facet normal 0.779191 -0.313393 0.542813
    outer loop
      vertex 15 -38.0172 10.5465
      vertex 13.1 -38.5305 12.9775
      vertex 13.1 -38.9832 12.7161
    endloop
  endfacet
  facet normal 0.779191 0.313393 0.542813
    outer loop
      vertex 13.1 -41.4695 12.9775
      vertex 15 -41.9828 10.5465
      vertex 13.1 -41.0168 12.7161
    endloop
  endfacet
  facet normal 0.779191 0.313394 0.542813
    outer loop
      vertex 15 -41.9828 10.5465
      vertex 13.1 -41.4695 12.9775
      vertex 15 -42.8655 11.056
    endloop
  endfacet
  facet normal 0.779192 0.613089 0.130319
    outer loop
      vertex 13.1 -42.4863 14.7387
      vertex 15 -44.6364 13.4935
      vertex 13.1 -42.3776 14.2275
    endloop
  endfacet
  facet normal 0.779191 0.61309 0.130315
    outer loop
      vertex 15 -44.6364 13.4935
      vertex 13.1 -42.4863 14.7387
      vertex 15 -44.8483 14.4904
    endloop
  endfacet
  facet normal 0.779191 0.572597 -0.254938
    outer loop
      vertex 15 -44.2219 17.4375
      vertex 13.1 -42.3776 15.7725
      vertex 13.1 -42.1651 16.25
    endloop
  endfacet
  facet normal 0.779191 0.572597 -0.254938
    outer loop
      vertex 13.1 -42.3776 15.7725
      vertex 15 -44.2219 17.4375
      vertex 15 -44.6364 16.5065
    endloop
  endfacet
  facet normal 0.779191 0.193688 -0.59611
    outer loop
      vertex 15 -41.0136 19.7685
      vertex 13.1 -41.0168 17.2839
      vertex 13.1 -40.5198 17.4454
    endloop
  endfacet
  facet normal 0.779191 0.193687 -0.59611
    outer loop
      vertex 13.1 -41.0168 17.2839
      vertex 15 -41.0136 19.7685
      vertex 15 -41.9828 19.4535
    endloop
  endfacet
  facet normal 0.779191 -0.193687 -0.59611
    outer loop
      vertex 15 -38.9864 19.7685
      vertex 13.1 -38.9832 17.2839
      vertex 15 -38.0172 19.4535
    endloop
  endfacet
  facet normal 0.779191 -0.193689 -0.596109
    outer loop
      vertex 13.1 -38.9832 17.2839
      vertex 15 -38.9864 19.7685
      vertex 13.1 -39.4802 17.4454
    endloop
  endfacet
  facet normal 0.779191 -0.507081 -0.368415
    outer loop
      vertex 15 -36.3772 18.262
      vertex 13.1 -37.8349 16.25
      vertex 15 -35.7781 17.4375
    endloop
  endfacet
  facet normal 0.779191 -0.507082 -0.368414
    outer loop
      vertex 15 -36.3772 18.262
      vertex 13.1 -38.1421 16.6728
      vertex 13.1 -37.8349 16.25
    endloop
  endfacet
  facet normal 0.779191 -0.61309 -0.130315
    outer loop
      vertex 15 -35.3636 16.5065
      vertex 13.1 -37.5137 15.2613
      vertex 15 -35.1517 15.5096
    endloop
  endfacet
  facet normal 0.779192 -0.613089 -0.130319
    outer loop
      vertex 13.1 -37.5137 15.2613
      vertex 15 -35.3636 16.5065
      vertex 13.1 -37.6224 15.7725
    endloop
  endfacet
  facet normal 0.779191 -0.61309 0.130315
    outer loop
      vertex 13.1 -37.5137 14.7387
      vertex 15 -35.3636 13.4935
      vertex 15 -35.1517 14.4904
    endloop
  endfacet
  facet normal 0.779192 -0.613089 0.130319
    outer loop
      vertex 15 -35.3636 13.4935
      vertex 13.1 -37.5137 14.7387
      vertex 13.1 -37.6224 14.2275
    endloop
  endfacet
  facet normal 0.779191 -0.507081 0.368415
    outer loop
      vertex 13.1 -37.8349 13.75
      vertex 15 -36.3772 11.738
      vertex 15 -35.7781 12.5625
    endloop
  endfacet
  facet normal 0.779191 -0.507083 0.368413
    outer loop
      vertex 15 -36.3772 11.738
      vertex 13.1 -37.8349 13.75
      vertex 13.1 -38.1421 13.3272
    endloop
  endfacet
  facet normal 0.779191 -0.193688 0.596109
    outer loop
      vertex 13.1 -38.9832 12.7161
      vertex 15 -38.9864 10.2315
      vertex 15 -38.0172 10.5465
    endloop
  endfacet
  facet normal 0.779191 -0.193688 0.596109
    outer loop
      vertex 15 -38.9864 10.2315
      vertex 13.1 -38.9832 12.7161
      vertex 13.1 -39.4802 12.5546
    endloop
  endfacet
  facet normal 0.779191 0.193688 0.596109
    outer loop
      vertex 13.1 -41.0168 12.7161
      vertex 15 -41.0136 10.2315
      vertex 13.1 -40.5198 12.5546
    endloop
  endfacet
  facet normal 0.779191 0.193688 0.596109
    outer loop
      vertex 15 -41.0136 10.2315
      vertex 13.1 -41.0168 12.7161
      vertex 15 -41.9828 10.5465
    endloop
  endfacet
  facet normal 0.779191 0.419403 0.465792
    outer loop
      vertex 13.1 -41.8579 13.3272
      vertex 15 -42.8655 11.056
      vertex 13.1 -41.4695 12.9775
    endloop
  endfacet
  facet normal 0.779191 0.419401 0.465794
    outer loop
      vertex 15 -42.8655 11.056
      vertex 13.1 -41.8579 13.3272
      vertex 15 -43.6228 11.738
    endloop
  endfacet
  facet normal 0.779191 0.572598 0.254937
    outer loop
      vertex 13.1 -42.3776 14.2275
      vertex 15 -44.2219 12.5625
      vertex 13.1 -42.1651 13.75
    endloop
  endfacet
  facet normal 0.779191 0.572597 0.254938
    outer loop
      vertex 15 -44.2219 12.5625
      vertex 13.1 -42.3776 14.2275
      vertex 15 -44.6364 13.4935
    endloop
  endfacet
  facet normal 0.779191 0.626787 0
    outer loop
      vertex 15 -44.8483 15.5096
      vertex 13.1 -42.4863 14.7387
      vertex 13.1 -42.4863 15.2613
    endloop
  endfacet
  facet normal 0.779191 0.626787 0
    outer loop
      vertex 13.1 -42.4863 14.7387
      vertex 15 -44.8483 15.5096
      vertex 15 -44.8483 14.4904
    endloop
  endfacet
  facet normal 0.779191 0.507082 -0.368414
    outer loop
      vertex 15 -43.6228 18.262
      vertex 13.1 -42.1651 16.25
      vertex 13.1 -41.8579 16.6728
    endloop
  endfacet
  facet normal 0.779191 0.507081 -0.368415
    outer loop
      vertex 13.1 -42.1651 16.25
      vertex 15 -43.6228 18.262
      vertex 15 -44.2219 17.4375
    endloop
  endfacet
  facet normal 0.779191 0.313394 -0.542813
    outer loop
      vertex 15 -41.9828 19.4535
      vertex 13.1 -41.4695 17.0225
      vertex 13.1 -41.0168 17.2839
    endloop
  endfacet
  facet normal 0.779191 0.313394 -0.542813
    outer loop
      vertex 13.1 -41.4695 17.0225
      vertex 15 -41.9828 19.4535
      vertex 15 -42.8655 18.944
    endloop
  endfacet
  facet normal 0.779191 0.0655162 -0.623353
    outer loop
      vertex 15 -40 19.875
      vertex 13.1 -40.5198 17.4454
      vertex 13.1 -40 17.5
    endloop
  endfacet
  facet normal 0.779191 0.0655175 -0.623353
    outer loop
      vertex 13.1 -40.5198 17.4454
      vertex 15 -40 19.875
      vertex 15 -41.0136 19.7685
    endloop
  endfacet
endsolid OpenSCAD_Model
