solid OpenSCAD_Model
  facet normal -0.987688 3.47353e-17 0.156434
    outer loop
      vertex 0.00079192 3.005 3.005
      vertex 0 3 3
      vertex 0.00079192 2.995 3.005
    endloop
  endfacet
  facet normal -0.987688 -0.156434 0
    outer loop
      vertex 0 3 3
      vertex 0.14683 2.07295 2.07295
      vertex 0.00079192 2.995 3.005
    endloop
  endfacet
  facet normal -0.987688 -0.156434 0
    outer loop
      vertex 0.00079192 2.995 3.005
      vertex 0.14683 2.07295 2.07295
      vertex 0.14683 2.07295 8
    endloop
  endfacet
  facet normal -0.987688 -0.156434 0
    outer loop
      vertex 0.14683 2.07295 8
      vertex 0 3 8
      vertex 0 3 3.005
    endloop
  endfacet
  facet normal -0.987688 -0.156434 0
    outer loop
      vertex 0.00079192 2.995 3.005
      vertex 0.14683 2.07295 8
      vertex 0 3 3.005
    endloop
  endfacet
  facet normal -0.987688 -3.47353e-17 -0.156434
    outer loop
      vertex 0 3 3
      vertex 0.00079192 3.005 2.995
      vertex 0.14683 2.07295 2.07295
    endloop
  endfacet
  facet normal -0.987688 -3.47353e-17 -0.156434
    outer loop
      vertex 0 175.195 3
      vertex 0.00079192 3.005 2.995
      vertex 0 3.005 3
    endloop
  endfacet
  facet normal -0.987688 -3.47353e-17 -0.156434
    outer loop
      vertex 0.14683 2.07295 2.07295
      vertex 0.00079192 3.005 2.995
      vertex 0 175.195 3
    endloop
  endfacet
  facet normal -0.987688 -3.47353e-17 -0.156434
    outer loop
      vertex 0.14683 2.07295 2.07295
      vertex 0 175.195 3
      vertex 0.00079192 175.195 2.995
    endloop
  endfacet
  facet normal -0.987688 -3.47353e-17 -0.156434
    outer loop
      vertex 0.00079192 175.195 2.995
      vertex 0 175.2 3
      vertex 0.14683 176.127 2.07295
    endloop
  endfacet
  facet normal -0.987688 -3.47353e-17 -0.156434
    outer loop
      vertex 0.00079192 175.195 2.995
      vertex 0.14683 176.127 2.07295
      vertex 0.14683 2.07295 2.07295
    endloop
  endfacet
  facet normal -0.987688 0.156434 0
    outer loop
      vertex 0.00079192 3.005 2.995
      vertex 0 3 3
      vertex 0.00079192 3.005 3.005
    endloop
  endfacet
  facet normal 0 -1 0
    outer loop
      vertex 0.00079192 3.005 3.005
      vertex 0.00079192 3.005 8
      vertex 0 3.005 8
    endloop
  endfacet
  facet normal 0 -1 0
    outer loop
      vertex 0 3.005 3.005
      vertex 0.00079192 3.005 3.005
      vertex 0 3.005 8
    endloop
  endfacet
  facet normal -0.987688 0.156434 0
    outer loop
      vertex 0 3 3.005
      vertex 0 3 8
      vertex 0.00079192 3.005 3.005
    endloop
  endfacet
  facet normal -0.987688 0.156434 0
    outer loop
      vertex 0.00079192 3.005 3.005
      vertex 0 3 8
      vertex 0.00079192 3.005 8
    endloop
  endfacet
  facet normal 0 -2.22045e-16 -1
    outer loop
      vertex 0.00079192 3.005 3.005
      vertex 0.00079192 2.995 3.005
      vertex 0 3 3.005
    endloop
  endfacet
  facet normal 0 -1 0
    outer loop
      vertex 0.00079192 3.005 2.995
      vertex 0.00079192 3.005 3.005
      vertex 0 3.005 3
    endloop
  endfacet
  facet normal -0.987688 3.47353e-17 0.156434
    outer loop
      vertex 0 3.005 3
      vertex 0.00079192 3.005 3.005
      vertex 0 175.195 3
    endloop
  endfacet
  facet normal -0.987688 3.47353e-17 0.156434
    outer loop
      vertex 0.00079192 175.195 3.005
      vertex 0.00079192 3.005 3.005
      vertex 0.00079192 175.205 3.005
    endloop
  endfacet
  facet normal -0.987688 3.47353e-17 0.156434
    outer loop
      vertex 0 175.195 3
      vertex 0.00079192 3.005 3.005
      vertex 0.00079192 175.195 3.005
    endloop
  endfacet
  facet normal -0.987688 3.47353e-17 0.156434
    outer loop
      vertex 0.00079192 175.195 3.005
      vertex 0.00079192 175.205 3.005
      vertex 0 175.2 3
    endloop
  endfacet
  facet normal 0 -2.22045e-16 -1
    outer loop
      vertex 0.00079192 175.195 3.005
      vertex 0 175.2 3.005
      vertex 0.00079192 175.205 3.005
    endloop
  endfacet
  facet normal 0 -2.22045e-16 -1
    outer loop
      vertex 0.00079192 175.195 3.005
      vertex 0.00079192 175.205 3.005
      vertex 0.00079192 3.005 3.005
    endloop
  endfacet
  facet normal 0 -2.22045e-16 -1
    outer loop
      vertex 0.00079192 175.195 3.005
      vertex 0.00079192 3.005 3.005
      vertex 0 175.195 3.005
    endloop
  endfacet
  facet normal 0 -2.22045e-16 -1
    outer loop
      vertex 0.00079192 3.005 3.005
      vertex 0 3.005 3.005
      vertex 0 175.195 3.005
    endloop
  endfacet
  facet normal 0 0 1
    outer loop
      vertex 0.00079192 3.005 8
      vertex 0 3 8
      vertex 0.14683 2.07295 8
    endloop
  endfacet
  facet normal 0 0 1
    outer loop
      vertex 1.23664 0.572949 8
      vertex 0.00079192 3.005 8
      vertex 0.572949 1.23664 8
    endloop
  endfacet
  facet normal 0 0 1
    outer loop
      vertex 0.572949 1.23664 8
      vertex 0.00079192 3.005 8
      vertex 0.14683 2.07295 8
    endloop
  endfacet
  facet normal 0 0 1
    outer loop
      vertex 2.07295 0.14683 8
      vertex 0.00079192 3.005 8
      vertex 1.23664 0.572949 8
    endloop
  endfacet
  facet normal 0 0 1
    outer loop
      vertex 3 0 8
      vertex 0.00079192 3.005 8
      vertex 2.07295 0.14683 8
    endloop
  endfacet
  facet normal 0 0 1
    outer loop
      vertex 3.005 0.00079192 8
      vertex 0.00079192 3.005 8
      vertex 3 0 8
    endloop
  endfacet
  facet normal 0 0 1
    outer loop
      vertex 165.195 0 8
      vertex 0.00079192 3.005 8
      vertex 3.005 0.00079192 8
    endloop
  endfacet
  facet normal 0 0 1
    outer loop
      vertex 165.195 0 8
      vertex 3.005 0.00079192 8
      vertex 3.005 0 8
    endloop
  endfacet
  facet normal 0 0 1
    outer loop
      vertex 165.195 0.00079192 8
      vertex 0.00079192 3.005 8
      vertex 165.195 0 8
    endloop
  endfacet
  facet normal 0 0 1
    outer loop
      vertex 166.127 0.14683 8
      vertex 0.00079192 3.005 8
      vertex 165.195 0.00079192 8
    endloop
  endfacet
  facet normal 0 0 1
    outer loop
      vertex 166.127 0.14683 8
      vertex 165.195 0.00079192 8
      vertex 165.2 6.66134e-16 8
    endloop
  endfacet
  facet normal 0 0 1
    outer loop
      vertex 166.963 0.572949 8
      vertex 0.00079192 3.005 8
      vertex 166.127 0.14683 8
    endloop
  endfacet
  facet normal 0 0 1
    outer loop
      vertex 167.627 1.23664 8
      vertex 0.00079192 3.005 8
      vertex 166.963 0.572949 8
    endloop
  endfacet
  facet normal 0 0 1
    outer loop
      vertex 168.053 2.07295 8
      vertex 0.00079192 3.005 8
      vertex 167.627 1.23664 8
    endloop
  endfacet
  facet normal 0 0 1
    outer loop
      vertex 168.2 3 8
      vertex 0.00079192 3.005 8
      vertex 168.053 2.07295 8
    endloop
  endfacet
  facet normal 0 0 1
    outer loop
      vertex 168.199 3.005 8
      vertex 0.00079192 3.005 8
      vertex 168.2 3 8
    endloop
  endfacet
  facet normal 0 0 1
    outer loop
      vertex 4 4 8
      vertex 0.00079192 3.005 8
      vertex 168.199 3.005 8
    endloop
  endfacet
  facet normal 0 0 1
    outer loop
      vertex 168.2 175.195 8
      vertex 168.199 3.005 8
      vertex 168.2 3.005 8
    endloop
  endfacet
  facet normal 0 0 1
    outer loop
      vertex 164.2 174.2 8
      vertex 164.2 4 8
      vertex 168.2 175.195 8
    endloop
  endfacet
  facet normal 0 0 1
    outer loop
      vertex 3.005 178.199 8
      vertex 0 3.005 8
      vertex 0.00079192 3.005 8
    endloop
  endfacet
  facet normal 0 0 1
    outer loop
      vertex 3.005 178.2 8
      vertex 3.005 178.199 8
      vertex 165.195 178.2 8
    endloop
  endfacet
  facet normal 0 0 1
    outer loop
      vertex 165.195 178.199 8
      vertex 166.127 178.053 8
      vertex 165.2 178.2 8
    endloop
  endfacet
  facet normal 0 0 1
    outer loop
      vertex 3.005 178.199 8
      vertex 3 178.2 8
      vertex 0 3.005 8
    endloop
  endfacet
  facet normal 0 0 1
    outer loop
      vertex 4 174.2 8
      vertex 166.127 178.053 8
      vertex 165.195 178.199 8
    endloop
  endfacet
  facet normal 0 0 1
    outer loop
      vertex 4 174.2 8
      vertex 166.963 177.627 8
      vertex 166.127 178.053 8
    endloop
  endfacet
  facet normal 0 0 1
    outer loop
      vertex 4 174.2 8
      vertex 164.2 174.2 8
      vertex 166.963 177.627 8
    endloop
  endfacet
  facet normal 0 0 1
    outer loop
      vertex 164.2 174.2 8
      vertex 168.053 176.127 8
      vertex 167.627 176.963 8
    endloop
  endfacet
  facet normal 0 0 1
    outer loop
      vertex 0 175.2 8
      vertex 0.00079192 175.195 8
      vertex 0.14683 176.127 8
    endloop
  endfacet
  facet normal 0 0 1
    outer loop
      vertex 164.2 174.2 8
      vertex 168.2 175.2 8
      vertex 168.053 176.127 8
    endloop
  endfacet
  facet normal 0 0 1
    outer loop
      vertex 0 175.195 8
      vertex 0 3.005 8
      vertex 0.00079192 175.195 8
    endloop
  endfacet
  facet normal 0 0 1
    outer loop
      vertex 164.2 4 8
      vertex 4 4 8
      vertex 168.199 3.005 8
    endloop
  endfacet
  facet normal 0 0 1
    outer loop
      vertex 3.005 178.199 8
      vertex 4 174.2 8
      vertex 165.195 178.2 8
    endloop
  endfacet
  facet normal 0 0 1
    outer loop
      vertex 3.005 178.199 8
      vertex 0.00079192 3.005 8
      vertex 4 174.2 8
    endloop
  endfacet
  facet normal 0 0 1
    outer loop
      vertex 166.963 177.627 8
      vertex 164.2 174.2 8
      vertex 167.627 176.963 8
    endloop
  endfacet
  facet normal 0 0 1
    outer loop
      vertex 168.2 175.195 8
      vertex 164.2 4 8
      vertex 168.199 3.005 8
    endloop
  endfacet
  facet normal 0 0 1
    outer loop
      vertex 0 3.005 8
      vertex 0.14683 176.127 8
      vertex 0.00079192 175.195 8
    endloop
  endfacet
  facet normal 0 0 1
    outer loop
      vertex 0 3.005 8
      vertex 0.572949 176.963 8
      vertex 0.14683 176.127 8
    endloop
  endfacet
  facet normal 0 0 1
    outer loop
      vertex 0 3.005 8
      vertex 1.23664 177.627 8
      vertex 0.572949 176.963 8
    endloop
  endfacet
  facet normal 0 0 1
    outer loop
      vertex 0 3.005 8
      vertex 2.07295 178.053 8
      vertex 1.23664 177.627 8
    endloop
  endfacet
  facet normal 0 0 1
    outer loop
      vertex 0 3.005 8
      vertex 3 178.2 8
      vertex 2.07295 178.053 8
    endloop
  endfacet
  facet normal 0 0 1
    outer loop
      vertex 4 174.2 8
      vertex 165.195 178.199 8
      vertex 165.195 178.2 8
    endloop
  endfacet
  facet normal 0 0 1
    outer loop
      vertex 164.2 174.2 8
      vertex 168.199 175.195 8
      vertex 168.2 175.2 8
    endloop
  endfacet
  facet normal 0 0 1
    outer loop
      vertex 164.2 174.2 8
      vertex 168.2 175.195 8
      vertex 168.199 175.195 8
    endloop
  endfacet
  facet normal 0 0 1
    outer loop
      vertex 4 4 8
      vertex 4 174.2 8
      vertex 0.00079192 3.005 8
    endloop
  endfacet
  facet normal -0.891006 -0.453991 0
    outer loop
      vertex 0.14683 2.07295 2.07295
      vertex 0.572949 1.23664 1.23664
      vertex 0.14683 2.07295 8
    endloop
  endfacet
  facet normal -0.891006 -0.453991 0
    outer loop
      vertex 0.14683 2.07295 8
      vertex 0.572949 1.23664 1.23664
      vertex 0.572949 1.23664 8
    endloop
  endfacet
  facet normal -0.891006 -1.00806e-16 -0.453991
    outer loop
      vertex 0.14683 2.07295 2.07295
      vertex 0.14683 176.127 2.07295
      vertex 0.572949 1.23664 1.23664
    endloop
  endfacet
  facet normal -0.891006 -1.00806e-16 -0.453991
    outer loop
      vertex 0.572949 1.23664 1.23664
      vertex 0.14683 176.127 2.07295
      vertex 0.572949 176.963 1.23664
    endloop
  endfacet
  facet normal -0.891006 0.453991 0
    outer loop
      vertex 0.14683 176.127 2.07295
      vertex 0.14683 176.127 8
      vertex 0.572949 176.963 8
    endloop
  endfacet
  facet normal -0.891006 0.453991 0
    outer loop
      vertex 0.14683 176.127 2.07295
      vertex 0.572949 176.963 8
      vertex 0.572949 176.963 1.23664
    endloop
  endfacet
  facet normal -0.987688 0.156434 0
    outer loop
      vertex 0 175.2 3
      vertex 0.00079192 175.205 3.005
      vertex 0.14683 176.127 2.07295
    endloop
  endfacet
  facet normal -0.987688 0.156434 0
    outer loop
      vertex 0 175.2 8
      vertex 0.00079192 175.205 3.005
      vertex 0 175.2 3.005
    endloop
  endfacet
  facet normal -0.987688 0.156434 0
    outer loop
      vertex 0.14683 176.127 2.07295
      vertex 0.00079192 175.205 3.005
      vertex 0 175.2 8
    endloop
  endfacet
  facet normal -0.987688 0.156434 0
    outer loop
      vertex 0.14683 176.127 2.07295
      vertex 0 175.2 8
      vertex 0.14683 176.127 8
    endloop
  endfacet
  facet normal -0.987688 -0.156434 0
    outer loop
      vertex 0.00079192 175.195 3.005
      vertex 0 175.2 3
      vertex 0.00079192 175.195 2.995
    endloop
  endfacet
  facet normal 2.22045e-16 1 0
    outer loop
      vertex 0.00079192 175.195 3.005
      vertex 0.00079192 175.195 2.995
      vertex 0 175.195 3
    endloop
  endfacet
  facet normal -1 0 0
    outer loop
      vertex 0 3.005 3.005
      vertex 0 3.005 8
      vertex 0 175.195 3.005
    endloop
  endfacet
  facet normal -1 0 0
    outer loop
      vertex 0 175.195 3.005
      vertex 0 3.005 8
      vertex 0 175.195 8
    endloop
  endfacet
  facet normal 2.22045e-16 1 0
    outer loop
      vertex 0.00079192 175.195 8
      vertex 0.00079192 175.195 3.005
      vertex 0 175.195 8
    endloop
  endfacet
  facet normal 2.22045e-16 1 0
    outer loop
      vertex 0 175.195 8
      vertex 0.00079192 175.195 3.005
      vertex 0 175.195 3.005
    endloop
  endfacet
  facet normal -0.987688 -0.156434 0
    outer loop
      vertex 0 175.2 3.005
      vertex 0.00079192 175.195 3.005
      vertex 0 175.2 8
    endloop
  endfacet
  facet normal -0.987688 -0.156434 0
    outer loop
      vertex 0 175.2 8
      vertex 0.00079192 175.195 3.005
      vertex 0.00079192 175.195 8
    endloop
  endfacet
  facet normal -0.707107 0.707107 0
    outer loop
      vertex 0.572949 176.963 1.23664
      vertex 0.572949 176.963 8
      vertex 1.23664 177.627 8
    endloop
  endfacet
  facet normal -0.707107 0.707107 0
    outer loop
      vertex 0.572949 176.963 1.23664
      vertex 1.23664 177.627 8
      vertex 1.23664 177.627 1.23664
    endloop
  endfacet
  facet normal -0.707107 0.707107 0
    outer loop
      vertex 0.572949 176.963 1.23664
      vertex 1.23664 177.627 1.23664
      vertex 0.904796 177.295 0.904796
    endloop
  endfacet
  facet normal -0.453991 0.891006 0
    outer loop
      vertex 1.23664 177.627 1.23664
      vertex 1.23664 177.627 8
      vertex 2.07295 178.053 8
    endloop
  endfacet
  facet normal -0.453991 0.891006 0
    outer loop
      vertex 1.23664 177.627 1.23664
      vertex 2.07295 178.053 8
      vertex 2.07295 178.053 2.07295
    endloop
  endfacet
  facet normal -0.156434 0.987688 0
    outer loop
      vertex 2.07295 178.053 2.07295
      vertex 2.07295 178.053 8
      vertex 3 178.2 8
    endloop
  endfacet
  facet normal -0.156434 0.987688 0
    outer loop
      vertex 2.995 178.199 3.005
      vertex 3 178.2 8
      vertex 3 178.2 3.005
    endloop
  endfacet
  facet normal -0.156434 0.987688 0
    outer loop
      vertex 2.07295 178.053 2.07295
      vertex 3 178.2 8
      vertex 2.995 178.199 3.005
    endloop
  endfacet
  facet normal -0.156434 0.987688 0
    outer loop
      vertex 3 178.2 3
      vertex 2.07295 178.053 2.07295
      vertex 2.995 178.199 3.005
    endloop
  endfacet
  facet normal 0.156434 0.987688 0
    outer loop
      vertex 3.005 178.199 2.995
      vertex 3 178.2 3
      vertex 3.005 178.199 3.005
    endloop
  endfacet
  facet normal 0.156434 0.987688 0
    outer loop
      vertex 3.005 178.199 3.005
      vertex 3 178.2 3.005
      vertex 3 178.2 8
    endloop
  endfacet
  facet normal 0.156434 0.987688 0
    outer loop
      vertex 3.005 178.199 3.005
      vertex 3 178.2 8
      vertex 3.005 178.199 8
    endloop
  endfacet
  facet normal 0.156434 0.987688 0
    outer loop
      vertex 3.005 178.199 3.005
      vertex 3.005 178.199 8
      vertex 3.005 178.199 2.995
    endloop
  endfacet
  facet normal -1 2.22045e-16 0
    outer loop
      vertex 3.005 178.2 8
      vertex 3.005 178.2 3.005
      vertex 3.005 178.199 8
    endloop
  endfacet
  facet normal -1 2.22045e-16 0
    outer loop
      vertex 3.005 178.199 8
      vertex 3.005 178.2 3.005
      vertex 3.005 178.199 3.005
    endloop
  endfacet
  facet normal -1 2.22045e-16 0
    outer loop
      vertex 3.005 178.199 3.005
      vertex 3.005 178.2 3
      vertex 3.005 178.199 2.995
    endloop
  endfacet
  facet normal -1 2.22045e-16 0
    outer loop
      vertex 3.005 178.199 3.005
      vertex 3.005 178.199 2.995
      vertex 3.005 178.199 8
    endloop
  endfacet
  facet normal 0 1 0
    outer loop
      vertex 3.005 178.2 3.005
      vertex 3.005 178.2 8
      vertex 165.195 178.2 3.005
    endloop
  endfacet
  facet normal 0 1 0
    outer loop
      vertex 165.195 178.2 3.005
      vertex 3.005 178.2 8
      vertex 165.195 178.2 8
    endloop
  endfacet
  facet normal 1 -1.22465e-16 0
    outer loop
      vertex 165.195 178.199 2.995
      vertex 165.195 178.2 3
      vertex 165.195 178.199 3.005
    endloop
  endfacet
  facet normal 1 -1.22465e-16 0
    outer loop
      vertex 165.195 178.2 3.005
      vertex 165.195 178.2 8
      vertex 165.195 178.199 3.005
    endloop
  endfacet
  facet normal 1 -1.22465e-16 0
    outer loop
      vertex 165.195 178.2 8
      vertex 165.195 178.199 8
      vertex 165.195 178.199 3.005
    endloop
  endfacet
  facet normal 1 -1.22465e-16 0
    outer loop
      vertex 165.195 178.199 8
      vertex 165.195 178.199 2.995
      vertex 165.195 178.199 3.005
    endloop
  endfacet
  facet normal -0.156434 0.987688 0
    outer loop
      vertex 165.2 178.2 3.005
      vertex 165.195 178.199 8
      vertex 165.2 178.2 8
    endloop
  endfacet
  facet normal -0.156434 0.987688 0
    outer loop
      vertex 165.195 178.199 2.995
      vertex 165.195 178.199 8
      vertex 165.195 178.199 3.005
    endloop
  endfacet
  facet normal -0.156434 0.987688 0
    outer loop
      vertex 165.195 178.199 2.995
      vertex 165.195 178.199 3.005
      vertex 165.2 178.2 3
    endloop
  endfacet
  facet normal -0.156434 0.987688 0
    outer loop
      vertex 165.195 178.199 3.005
      vertex 165.195 178.199 8
      vertex 165.2 178.2 3.005
    endloop
  endfacet
  facet normal 0.156434 0.987688 0
    outer loop
      vertex 166.127 178.053 2.07295
      vertex 165.2 178.2 3
      vertex 165.205 178.199 3.005
    endloop
  endfacet
  facet normal 0.156434 0.987688 0
    outer loop
      vertex 165.205 178.199 3.005
      vertex 165.2 178.2 3.005
      vertex 165.2 178.2 8
    endloop
  endfacet
  facet normal 0.156434 0.987688 0
    outer loop
      vertex 165.205 178.199 3.005
      vertex 165.2 178.2 8
      vertex 166.127 178.053 2.07295
    endloop
  endfacet
  facet normal 0.156434 0.987688 0
    outer loop
      vertex 166.127 178.053 2.07295
      vertex 165.2 178.2 8
      vertex 166.127 178.053 8
    endloop
  endfacet
  facet normal 0.453991 0.891006 0
    outer loop
      vertex 166.127 178.053 2.07295
      vertex 166.127 178.053 8
      vertex 166.963 177.627 1.23664
    endloop
  endfacet
  facet normal 0.453991 0.891006 0
    outer loop
      vertex 166.963 177.627 1.23664
      vertex 166.127 178.053 8
      vertex 166.963 177.627 8
    endloop
  endfacet
  facet normal 0.707107 0.707107 0
    outer loop
      vertex 167.295 177.295 0.904796
      vertex 166.963 177.627 1.23664
      vertex 166.963 177.627 8
    endloop
  endfacet
  facet normal 0.707107 0.707107 0
    outer loop
      vertex 167.627 176.963 1.23664
      vertex 167.295 177.295 0.904796
      vertex 167.627 176.963 8
    endloop
  endfacet
  facet normal 0.707107 0.707107 0
    outer loop
      vertex 167.627 176.963 8
      vertex 167.295 177.295 0.904796
      vertex 166.963 177.627 8
    endloop
  endfacet
  facet normal 0.891006 0.453991 0
    outer loop
      vertex 168.053 176.127 2.07295
      vertex 167.627 176.963 1.23664
      vertex 168.053 176.127 8
    endloop
  endfacet
  facet normal 0.891006 0.453991 0
    outer loop
      vertex 168.053 176.127 8
      vertex 167.627 176.963 1.23664
      vertex 167.627 176.963 8
    endloop
  endfacet
  facet normal 0.987688 0.156434 0
    outer loop
      vertex 168.199 175.205 3.005
      vertex 168.053 176.127 2.07295
      vertex 168.2 175.2 8
    endloop
  endfacet
  facet normal 0.987688 0.156434 0
    outer loop
      vertex 168.2 175.2 8
      vertex 168.053 176.127 2.07295
      vertex 168.053 176.127 8
    endloop
  endfacet
  facet normal 0.987688 0.156434 0
    outer loop
      vertex 168.2 175.2 3.005
      vertex 168.199 175.205 3.005
      vertex 168.2 175.2 8
    endloop
  endfacet
  facet normal 0.987688 0.156434 0
    outer loop
      vertex 168.199 175.205 3.005
      vertex 168.2 175.2 3
      vertex 168.053 176.127 2.07295
    endloop
  endfacet
  facet normal 0.987688 -0.156434 0
    outer loop
      vertex 168.199 175.195 3.005
      vertex 168.199 175.195 2.995
      vertex 168.2 175.2 3
    endloop
  endfacet
  facet normal 0.987688 -0.156434 0
    outer loop
      vertex 168.199 175.195 3.005
      vertex 168.2 175.2 3.005
      vertex 168.199 175.195 8
    endloop
  endfacet
  facet normal 0.987688 -0.156434 0
    outer loop
      vertex 168.199 175.195 8
      vertex 168.199 175.195 2.995
      vertex 168.199 175.195 3.005
    endloop
  endfacet
  facet normal 0.987688 -0.156434 0
    outer loop
      vertex 168.2 175.2 8
      vertex 168.199 175.195 8
      vertex 168.2 175.2 3.005
    endloop
  endfacet
  facet normal 1.22465e-16 1 0
    outer loop
      vertex 168.2 175.195 8
      vertex 168.2 175.195 3.005
      vertex 168.199 175.195 8
    endloop
  endfacet
  facet normal 1.22465e-16 1 0
    outer loop
      vertex 168.199 175.195 8
      vertex 168.2 175.195 3.005
      vertex 168.199 175.195 3.005
    endloop
  endfacet
  facet normal 1.22465e-16 1 0
    outer loop
      vertex 168.199 175.195 3.005
      vertex 168.2 175.195 3
      vertex 168.199 175.195 2.995
    endloop
  endfacet
  facet normal 1.22465e-16 1 0
    outer loop
      vertex 168.199 175.195 3.005
      vertex 168.199 175.195 2.995
      vertex 168.199 175.195 8
    endloop
  endfacet
  facet normal 1 0 0
    outer loop
      vertex 168.2 3.005 8
      vertex 168.2 3.005 3.005
      vertex 168.2 175.195 3.005
    endloop
  endfacet
  facet normal 1 0 0
    outer loop
      vertex 168.2 175.195 8
      vertex 168.2 3.005 8
      vertex 168.2 175.195 3.005
    endloop
  endfacet
  facet normal -2.22045e-16 -1 0
    outer loop
      vertex 168.199 3.005 2.995
      vertex 168.2 3.005 3
      vertex 168.199 3.005 3.005
    endloop
  endfacet
  facet normal -2.22045e-16 -1 0
    outer loop
      vertex 168.2 3.005 3.005
      vertex 168.2 3.005 8
      vertex 168.199 3.005 3.005
    endloop
  endfacet
  facet normal -2.22045e-16 -1 0
    outer loop
      vertex 168.2 3.005 8
      vertex 168.199 3.005 8
      vertex 168.199 3.005 3.005
    endloop
  endfacet
  facet normal -2.22045e-16 -1 0
    outer loop
      vertex 168.199 3.005 8
      vertex 168.199 3.005 2.995
      vertex 168.199 3.005 3.005
    endloop
  endfacet
  facet normal 0.987688 0.156434 0
    outer loop
      vertex 168.199 3.005 3.005
      vertex 168.199 3.005 2.995
      vertex 168.199 3.005 8
    endloop
  endfacet
  facet normal 0.987688 0.156434 0
    outer loop
      vertex 168.2 3 8
      vertex 168.2 3 3.005
      vertex 168.199 3.005 8
    endloop
  endfacet
  facet normal 0.987688 0.156434 0
    outer loop
      vertex 168.2 3 3
      vertex 168.199 3.005 2.995
      vertex 168.199 3.005 3.005
    endloop
  endfacet
  facet normal 0.987688 0.156434 0
    outer loop
      vertex 168.2 3 3.005
      vertex 168.199 3.005 3.005
      vertex 168.199 3.005 8
    endloop
  endfacet
  facet normal 0.987688 -0.156434 0
    outer loop
      vertex 168.199 2.995 3.005
      vertex 168.2 3 3.005
      vertex 168.053 2.07295 8
    endloop
  endfacet
  facet normal 0.987688 -0.156434 0
    outer loop
      vertex 168.199 2.995 3.005
      vertex 168.053 2.07295 8
      vertex 168.053 2.07295 2.07295
    endloop
  endfacet
  facet normal 0.987688 -0.156434 0
    outer loop
      vertex 168.2 3 3
      vertex 168.199 2.995 3.005
      vertex 168.053 2.07295 2.07295
    endloop
  endfacet
  facet normal 0.987688 -0.156434 0
    outer loop
      vertex 168.2 3 8
      vertex 168.053 2.07295 8
      vertex 168.2 3 3.005
    endloop
  endfacet
  facet normal 0.891006 -0.453991 0
    outer loop
      vertex 168.053 2.07295 8
      vertex 167.627 1.23664 8
      vertex 168.053 2.07295 2.07295
    endloop
  endfacet
  facet normal 0.891006 -0.453991 0
    outer loop
      vertex 168.053 2.07295 2.07295
      vertex 167.627 1.23664 8
      vertex 167.627 1.23664 1.23664
    endloop
  endfacet
  facet normal 0.707107 -0.707107 0
    outer loop
      vertex 166.963 0.572949 8
      vertex 166.963 0.572949 1.23664
      vertex 167.295 0.904797 0.904796
    endloop
  endfacet
  facet normal 0.707107 -0.707107 0
    outer loop
      vertex 167.627 1.23664 8
      vertex 166.963 0.572949 8
      vertex 167.627 1.23664 1.23664
    endloop
  endfacet
  facet normal 0.707107 -0.707107 0
    outer loop
      vertex 167.627 1.23664 1.23664
      vertex 166.963 0.572949 8
      vertex 167.295 0.904797 0.904796
    endloop
  endfacet
  facet normal 0.453991 -0.891006 0
    outer loop
      vertex 166.127 0.14683 8
      vertex 166.127 0.14683 2.07295
      vertex 166.963 0.572949 1.23664
    endloop
  endfacet
  facet normal 0.453991 -0.891006 0
    outer loop
      vertex 166.963 0.572949 8
      vertex 166.127 0.14683 8
      vertex 166.963 0.572949 1.23664
    endloop
  endfacet
  facet normal 0.156434 -0.987688 0
    outer loop
      vertex 165.205 0.00079192 3.005
      vertex 165.2 6.66134e-16 3
      vertex 166.127 0.14683 2.07295
    endloop
  endfacet
  facet normal 0.156434 -0.987688 0
    outer loop
      vertex 165.2 6.66134e-16 8
      vertex 165.2 6.66134e-16 3.005
      vertex 166.127 0.14683 8
    endloop
  endfacet
  facet normal 0.156434 -0.987688 0
    outer loop
      vertex 166.127 0.14683 8
      vertex 165.205 0.00079192 3.005
      vertex 166.127 0.14683 2.07295
    endloop
  endfacet
  facet normal 0.156434 -0.987688 0
    outer loop
      vertex 165.2 6.66134e-16 3.005
      vertex 165.205 0.00079192 3.005
      vertex 166.127 0.14683 8
    endloop
  endfacet
  facet normal -0.156434 -0.987688 0
    outer loop
      vertex 165.195 0.00079192 3.005
      vertex 165.195 0.00079192 2.995
      vertex 165.2 6.66134e-16 3
    endloop
  endfacet
  facet normal -0.156434 -0.987688 0
    outer loop
      vertex 165.195 0.00079192 3.005
      vertex 165.2 6.66134e-16 3.005
      vertex 165.195 0.00079192 8
    endloop
  endfacet
  facet normal -0.156434 -0.987688 0
    outer loop
      vertex 165.195 0.00079192 8
      vertex 165.195 0.00079192 2.995
      vertex 165.195 0.00079192 3.005
    endloop
  endfacet
  facet normal -0.156434 -0.987688 0
    outer loop
      vertex 165.2 6.66134e-16 8
      vertex 165.195 0.00079192 8
      vertex 165.2 6.66134e-16 3.005
    endloop
  endfacet
  facet normal 1 -2.22045e-16 0
    outer loop
      vertex 165.195 0.00079192 3.005
      vertex 165.195 0.00079192 8
      vertex 165.195 0 8
    endloop
  endfacet
  facet normal 1 -2.22045e-16 0
    outer loop
      vertex 165.195 0.00079192 3.005
      vertex 165.195 0 3
      vertex 165.195 0.00079192 2.995
    endloop
  endfacet
  facet normal 1 -2.22045e-16 0
    outer loop
      vertex 165.195 0.00079192 2.995
      vertex 165.195 0.00079192 8
      vertex 165.195 0.00079192 3.005
    endloop
  endfacet
  facet normal 1 -2.22045e-16 0
    outer loop
      vertex 165.195 0 3.005
      vertex 165.195 0.00079192 3.005
      vertex 165.195 0 8
    endloop
  endfacet
  facet normal 0 -1 0
    outer loop
      vertex 3.005 0 8
      vertex 3.005 0 3.005
      vertex 165.195 0 3.005
    endloop
  endfacet
  facet normal 0 -1 0
    outer loop
      vertex 165.195 0 8
      vertex 3.005 0 8
      vertex 165.195 0 3.005
    endloop
  endfacet
  facet normal -1 0 0
    outer loop
      vertex 3.005 0.00079192 3.005
      vertex 3.005 0 3.005
      vertex 3.005 0 8
    endloop
  endfacet
  facet normal -1 0 0
    outer loop
      vertex 3.005 0.00079192 3.005
      vertex 3.005 0 8
      vertex 3.005 0.00079192 8
    endloop
  endfacet
  facet normal -1 0 0
    outer loop
      vertex 3.005 0.00079192 3.005
      vertex 3.005 0.00079192 8
      vertex 3.005 0.00079192 2.995
    endloop
  endfacet
  facet normal -1 0 0
    outer loop
      vertex 3.005 0.00079192 3.005
      vertex 3.005 0.00079192 2.995
      vertex 3.005 0 3
    endloop
  endfacet
  facet normal 0.156434 -0.987688 0
    outer loop
      vertex 3.005 0.00079192 3.005
      vertex 3 0 3
      vertex 3.005 0.00079192 2.995
    endloop
  endfacet
  facet normal 0.156434 -0.987688 0
    outer loop
      vertex 3 0 8
      vertex 3 0 3.005
      vertex 3.005 0.00079192 8
    endloop
  endfacet
  facet normal 0.156434 -0.987688 0
    outer loop
      vertex 3.005 0.00079192 8
      vertex 3.005 0.00079192 3.005
      vertex 3.005 0.00079192 2.995
    endloop
  endfacet
  facet normal 0.156434 -0.987688 0
    outer loop
      vertex 3 0 3.005
      vertex 3.005 0.00079192 3.005
      vertex 3.005 0.00079192 8
    endloop
  endfacet
  facet normal -0.156434 -0.987688 0
    outer loop
      vertex 2.995 0.00079192 3.005
      vertex 3 0 3.005
      vertex 2.07295 0.14683 8
    endloop
  endfacet
  facet normal -0.156434 -0.987688 0
    outer loop
      vertex 2.995 0.00079192 3.005
      vertex 2.07295 0.14683 8
      vertex 2.07295 0.14683 2.07295
    endloop
  endfacet
  facet normal -0.156434 -0.987688 0
    outer loop
      vertex 3 0 3
      vertex 2.995 0.00079192 3.005
      vertex 2.07295 0.14683 2.07295
    endloop
  endfacet
  facet normal -0.156434 -0.987688 0
    outer loop
      vertex 3 0 8
      vertex 2.07295 0.14683 8
      vertex 3 0 3.005
    endloop
  endfacet
  facet normal -0.453991 -0.891006 0
    outer loop
      vertex 2.07295 0.14683 8
      vertex 1.23664 0.572949 8
      vertex 2.07295 0.14683 2.07295
    endloop
  endfacet
  facet normal -0.453991 -0.891006 0
    outer loop
      vertex 2.07295 0.14683 2.07295
      vertex 1.23664 0.572949 8
      vertex 1.23664 0.572949 1.23664
    endloop
  endfacet
  facet normal -0.707107 -0.707107 0
    outer loop
      vertex 0.572949 1.23664 8
      vertex 0.572949 1.23664 1.23664
      vertex 0.904796 0.904797 0.904796
    endloop
  endfacet
  facet normal -0.707107 -0.707107 0
    outer loop
      vertex 1.23664 0.572949 8
      vertex 0.572949 1.23664 8
      vertex 1.23664 0.572949 1.23664
    endloop
  endfacet
  facet normal -0.707107 -0.707107 0
    outer loop
      vertex 1.23664 0.572949 1.23664
      vertex 0.572949 1.23664 8
      vertex 0.904796 0.904797 0.904796
    endloop
  endfacet
  facet normal 1 0 0
    outer loop
      vertex 4 174.2 6
      vertex 4 174.2 8
      vertex 4 4 8
    endloop
  endfacet
  facet normal 1 0 0
    outer loop
      vertex 4 4 6
      vertex 4 174.2 6
      vertex 4 4 8
    endloop
  endfacet
  facet normal 0 1 0
    outer loop
      vertex 164.2 4 8
      vertex 164.2 4 6
      vertex 4 4 8
    endloop
  endfacet
  facet normal 0 1 0
    outer loop
      vertex 4 4 8
      vertex 164.2 4 6
      vertex 4 4 6
    endloop
  endfacet
  facet normal -1 0 0
    outer loop
      vertex 164.2 174.2 8
      vertex 164.2 174.2 6
      vertex 164.2 4 8
    endloop
  endfacet
  facet normal -1 0 0
    outer loop
      vertex 164.2 4 8
      vertex 164.2 174.2 6
      vertex 164.2 4 6
    endloop
  endfacet
  facet normal 0 -1 0
    outer loop
      vertex 164.2 174.2 6
      vertex 164.2 174.2 8
      vertex 4 174.2 8
    endloop
  endfacet
  facet normal 0 -1 0
    outer loop
      vertex 4 174.2 6
      vertex 164.2 174.2 6
      vertex 4 174.2 8
    endloop
  endfacet
  facet normal -0.707107 -1.57009e-16 -0.707107
    outer loop
      vertex 0.572949 1.23664 1.23664
      vertex 0.572949 176.963 1.23664
      vertex 0.904796 0.904797 0.904796
    endloop
  endfacet
  facet normal -0.707107 -1.57009e-16 -0.707107
    outer loop
      vertex 0.904796 0.904797 0.904796
      vertex 0.572949 176.963 1.23664
      vertex 0.904796 177.295 0.904796
    endloop
  endfacet
  facet normal -0.707107 -1.57009e-16 -0.707107
    outer loop
      vertex 0.904796 0.904797 0.904796
      vertex 0.904796 177.295 0.904796
      vertex 1.23664 176.963 0.572949
    endloop
  endfacet
  facet normal -0.707107 -1.57009e-16 -0.707107
    outer loop
      vertex 0.904796 0.904797 0.904796
      vertex 1.23664 176.963 0.572949
      vertex 1.23664 1.23664 0.572949
    endloop
  endfacet
  facet normal -3.14018e-16 0.707107 -0.707107
    outer loop
      vertex 0.904796 177.295 0.904796
      vertex 1.23664 177.627 1.23664
      vertex 1.23664 176.963 0.572949
    endloop
  endfacet
  facet normal -3.14018e-16 0.707107 -0.707107
    outer loop
      vertex 1.23664 176.963 0.572949
      vertex 1.23664 177.627 1.23664
      vertex 166.963 177.627 1.23664
    endloop
  endfacet
  facet normal -3.14018e-16 0.707107 -0.707107
    outer loop
      vertex 1.23664 176.963 0.572949
      vertex 166.963 177.627 1.23664
      vertex 167.295 177.295 0.904796
    endloop
  endfacet
  facet normal -3.14018e-16 0.707107 -0.707107
    outer loop
      vertex 1.23664 176.963 0.572949
      vertex 167.295 177.295 0.904796
      vertex 166.963 176.963 0.572949
    endloop
  endfacet
  facet normal -2.98649e-16 0.891006 -0.453991
    outer loop
      vertex 1.23664 177.627 1.23664
      vertex 2.07295 178.053 2.07295
      vertex 166.963 177.627 1.23664
    endloop
  endfacet
  facet normal -2.98649e-16 0.891006 -0.453991
    outer loop
      vertex 166.963 177.627 1.23664
      vertex 2.07295 178.053 2.07295
      vertex 166.127 178.053 2.07295
    endloop
  endfacet
  facet normal -2.54046e-16 0.987688 -0.156434
    outer loop
      vertex 2.07295 178.053 2.07295
      vertex 3.005 178.199 2.995
      vertex 166.127 178.053 2.07295
    endloop
  endfacet
  facet normal -2.54046e-16 0.987688 -0.156434
    outer loop
      vertex 2.07295 178.053 2.07295
      vertex 3 178.2 3
      vertex 3.005 178.199 2.995
    endloop
  endfacet
  facet normal -2.54046e-16 0.987688 -0.156434
    outer loop
      vertex 165.2 178.2 3
      vertex 166.127 178.053 2.07295
      vertex 165.195 178.199 2.995
    endloop
  endfacet
  facet normal -2.54046e-16 0.987688 -0.156434
    outer loop
      vertex 165.195 178.199 2.995
      vertex 3.005 178.2 3
      vertex 165.195 178.2 3
    endloop
  endfacet
  facet normal -2.54046e-16 0.987688 -0.156434
    outer loop
      vertex 166.127 178.053 2.07295
      vertex 3.005 178.2 3
      vertex 165.195 178.199 2.995
    endloop
  endfacet
  facet normal -2.54046e-16 0.987688 -0.156434
    outer loop
      vertex 3.005 178.2 3
      vertex 166.127 178.053 2.07295
      vertex 3.005 178.199 2.995
    endloop
  endfacet
  facet normal -1.84576e-16 0.987688 0.156434
    outer loop
      vertex 3 178.2 3
      vertex 2.995 178.199 3.005
      vertex 3.005 178.199 3.005
    endloop
  endfacet
  facet normal -2.22045e-16 -4.93038e-32 -1
    outer loop
      vertex 3 178.2 3.005
      vertex 3.005 178.199 3.005
      vertex 2.995 178.199 3.005
    endloop
  endfacet
  facet normal -1.84576e-16 0.987688 0.156434
    outer loop
      vertex 3.005 178.199 3.005
      vertex 165.195 178.199 3.005
      vertex 3.005 178.2 3
    endloop
  endfacet
  facet normal -1.84576e-16 0.987688 0.156434
    outer loop
      vertex 3.005 178.2 3
      vertex 165.195 178.199 3.005
      vertex 165.195 178.2 3
    endloop
  endfacet
  facet normal -2.22045e-16 -4.93038e-32 -1
    outer loop
      vertex 165.195 178.2 3.005
      vertex 165.195 178.199 3.005
      vertex 3.005 178.2 3.005
    endloop
  endfacet
  facet normal -2.22045e-16 -4.93038e-32 -1
    outer loop
      vertex 3.005 178.2 3.005
      vertex 165.195 178.199 3.005
      vertex 3.005 178.199 3.005
    endloop
  endfacet
  facet normal -1.84576e-16 0.987688 0.156434
    outer loop
      vertex 165.195 178.199 3.005
      vertex 165.205 178.199 3.005
      vertex 165.2 178.2 3
    endloop
  endfacet
  facet normal -2.22045e-16 -4.93038e-32 -1
    outer loop
      vertex 165.2 178.2 3.005
      vertex 165.205 178.199 3.005
      vertex 165.195 178.199 3.005
    endloop
  endfacet
  facet normal 0.707107 -1.57009e-16 -0.707107
    outer loop
      vertex 166.963 1.23664 0.572949
      vertex 166.963 176.963 0.572949
      vertex 167.295 177.295 0.904796
    endloop
  endfacet
  facet normal 0.707107 -1.57009e-16 -0.707107
    outer loop
      vertex 166.963 1.23664 0.572949
      vertex 167.295 177.295 0.904796
      vertex 167.627 176.963 1.23664
    endloop
  endfacet
  facet normal 0.707107 -1.57009e-16 -0.707107
    outer loop
      vertex 166.963 1.23664 0.572949
      vertex 167.627 176.963 1.23664
      vertex 167.627 1.23664 1.23664
    endloop
  endfacet
  facet normal 0.707107 -1.57009e-16 -0.707107
    outer loop
      vertex 166.963 1.23664 0.572949
      vertex 167.627 1.23664 1.23664
      vertex 167.295 0.904797 0.904796
    endloop
  endfacet
  facet normal 0.891006 -1.97843e-16 -0.453991
    outer loop
      vertex 168.053 2.07295 2.07295
      vertex 167.627 1.23664 1.23664
      vertex 167.627 176.963 1.23664
    endloop
  endfacet
  facet normal 0.891006 -1.97843e-16 -0.453991
    outer loop
      vertex 168.053 176.127 2.07295
      vertex 168.053 2.07295 2.07295
      vertex 167.627 176.963 1.23664
    endloop
  endfacet
  facet normal 0.987688 -2.19311e-16 -0.156434
    outer loop
      vertex 168.199 3.005 2.995
      vertex 168.053 2.07295 2.07295
      vertex 168.053 176.127 2.07295
    endloop
  endfacet
  facet normal 0.987688 -2.19311e-16 -0.156434
    outer loop
      vertex 168.2 3.005 3
      vertex 168.053 176.127 2.07295
      vertex 168.199 175.195 2.995
    endloop
  endfacet
  facet normal 0.987688 -2.19311e-16 -0.156434
    outer loop
      vertex 168.2 175.2 3
      vertex 168.199 175.195 2.995
      vertex 168.053 176.127 2.07295
    endloop
  endfacet
  facet normal 0.987688 -2.19311e-16 -0.156434
    outer loop
      vertex 168.2 3.005 3
      vertex 168.199 3.005 2.995
      vertex 168.053 176.127 2.07295
    endloop
  endfacet
  facet normal 0.987688 -2.19311e-16 -0.156434
    outer loop
      vertex 168.2 3 3
      vertex 168.053 2.07295 2.07295
      vertex 168.199 3.005 2.995
    endloop
  endfacet
  facet normal 0.987688 -2.19311e-16 -0.156434
    outer loop
      vertex 168.199 175.195 2.995
      vertex 168.2 175.195 3
      vertex 168.2 3.005 3
    endloop
  endfacet
  facet normal 0.987688 -2.19311e-16 0.156434
    outer loop
      vertex 168.199 175.205 3.005
      vertex 168.199 175.195 3.005
      vertex 168.2 175.2 3
    endloop
  endfacet
  facet normal -2.22045e-16 4.93038e-32 -1
    outer loop
      vertex 168.199 175.205 3.005
      vertex 168.2 175.2 3.005
      vertex 168.199 175.195 3.005
    endloop
  endfacet
  facet normal 0.987688 -2.19311e-16 0.156434
    outer loop
      vertex 168.199 175.195 3.005
      vertex 168.199 3.005 3.005
      vertex 168.2 3.005 3
    endloop
  endfacet
  facet normal 0.987688 -2.19311e-16 0.156434
    outer loop
      vertex 168.2 175.195 3
      vertex 168.199 175.195 3.005
      vertex 168.2 3.005 3
    endloop
  endfacet
  facet normal -2.22045e-16 4.93038e-32 -1
    outer loop
      vertex 168.2 175.195 3.005
      vertex 168.2 3.005 3.005
      vertex 168.199 175.195 3.005
    endloop
  endfacet
  facet normal -2.22045e-16 4.93038e-32 -1
    outer loop
      vertex 168.199 175.195 3.005
      vertex 168.2 3.005 3.005
      vertex 168.199 3.005 3.005
    endloop
  endfacet
  facet normal 0.987688 -2.19311e-16 0.156434
    outer loop
      vertex 168.199 3.005 3.005
      vertex 168.199 2.995 3.005
      vertex 168.2 3 3
    endloop
  endfacet
  facet normal -2.22045e-16 4.93038e-32 -1
    outer loop
      vertex 168.199 3.005 3.005
      vertex 168.2 3 3.005
      vertex 168.199 2.995 3.005
    endloop
  endfacet
  facet normal 0 -0.707107 -0.707107
    outer loop
      vertex 1.23664 0.572949 1.23664
      vertex 0.904796 0.904797 0.904796
      vertex 1.23664 1.23664 0.572949
    endloop
  endfacet
  facet normal 0 -0.707107 -0.707107
    outer loop
      vertex 167.295 0.904797 0.904796
      vertex 1.23664 0.572949 1.23664
      vertex 166.963 1.23664 0.572949
    endloop
  endfacet
  facet normal 0 -0.707107 -0.707107
    outer loop
      vertex 166.963 1.23664 0.572949
      vertex 1.23664 0.572949 1.23664
      vertex 1.23664 1.23664 0.572949
    endloop
  endfacet
  facet normal 0 -0.707107 -0.707107
    outer loop
      vertex 166.963 0.572949 1.23664
      vertex 1.23664 0.572949 1.23664
      vertex 167.295 0.904797 0.904796
    endloop
  endfacet
  facet normal -9.7037e-17 -0.891006 -0.453991
    outer loop
      vertex 2.07295 0.14683 2.07295
      vertex 1.23664 0.572949 1.23664
      vertex 166.963 0.572949 1.23664
    endloop
  endfacet
  facet normal -9.7037e-17 -0.891006 -0.453991
    outer loop
      vertex 166.127 0.14683 2.07295
      vertex 2.07295 0.14683 2.07295
      vertex 166.963 0.572949 1.23664
    endloop
  endfacet
  facet normal -2.54046e-16 -0.987688 0.156434
    outer loop
      vertex 165.205 0.00079192 3.005
      vertex 165.195 0.00079192 3.005
      vertex 165.2 6.66134e-16 3
    endloop
  endfacet
  facet normal 2.22045e-16 -4.93038e-32 -1
    outer loop
      vertex 165.205 0.00079192 3.005
      vertex 165.2 6.66134e-16 3.005
      vertex 165.195 0.00079192 3.005
    endloop
  endfacet
  facet normal -1.84576e-16 -0.987688 -0.156434
    outer loop
      vertex 3.005 0.00079192 2.995
      vertex 2.07295 0.14683 2.07295
      vertex 166.127 0.14683 2.07295
    endloop
  endfacet
  facet normal -1.84576e-16 -0.987688 -0.156434
    outer loop
      vertex 3.005 0 3
      vertex 166.127 0.14683 2.07295
      vertex 165.195 0.00079192 2.995
    endloop
  endfacet
  facet normal -1.84576e-16 -0.987688 -0.156434
    outer loop
      vertex 165.2 6.66134e-16 3
      vertex 165.195 0.00079192 2.995
      vertex 166.127 0.14683 2.07295
    endloop
  endfacet
  facet normal -1.84576e-16 -0.987688 -0.156434
    outer loop
      vertex 3.005 0 3
      vertex 3.005 0.00079192 2.995
      vertex 166.127 0.14683 2.07295
    endloop
  endfacet
  facet normal -1.84576e-16 -0.987688 -0.156434
    outer loop
      vertex 3 0 3
      vertex 2.07295 0.14683 2.07295
      vertex 3.005 0.00079192 2.995
    endloop
  endfacet
  facet normal -1.84576e-16 -0.987688 -0.156434
    outer loop
      vertex 165.195 0.00079192 2.995
      vertex 165.195 0 3
      vertex 3.005 0 3
    endloop
  endfacet
  facet normal -2.54046e-16 -0.987688 0.156434
    outer loop
      vertex 3.005 0.00079192 3.005
      vertex 3.005 0 3
      vertex 165.195 0 3
    endloop
  endfacet
  facet normal -2.54046e-16 -0.987688 0.156434
    outer loop
      vertex 165.195 0.00079192 3.005
      vertex 3.005 0.00079192 3.005
      vertex 165.195 0 3
    endloop
  endfacet
  facet normal 2.22045e-16 -4.93038e-32 -1
    outer loop
      vertex 165.195 0.00079192 3.005
      vertex 165.195 0 3.005
      vertex 3.005 0.00079192 3.005
    endloop
  endfacet
  facet normal 2.22045e-16 -4.93038e-32 -1
    outer loop
      vertex 3.005 0.00079192 3.005
      vertex 165.195 0 3.005
      vertex 3.005 0 3.005
    endloop
  endfacet
  facet normal -2.54046e-16 -0.987688 0.156434
    outer loop
      vertex 3.005 0.00079192 3.005
      vertex 2.995 0.00079192 3.005
      vertex 3 0 3
    endloop
  endfacet
  facet normal 2.22045e-16 -4.93038e-32 -1
    outer loop
      vertex 3.005 0.00079192 3.005
      vertex 3 0 3.005
      vertex 2.995 0.00079192 3.005
    endloop
  endfacet
  facet normal 0 0 1
    outer loop
      vertex 156.2 44.55 6
      vertex 74.1 44.55 6
      vertex 164.2 4 6
    endloop
  endfacet
  facet normal 0 0 1
    outer loop
      vertex 4 4 6
      vertex 12 54.55 6
      vertex 4 174.2 6
    endloop
  endfacet
  facet normal 0 0 1
    outer loop
      vertex 12 143.65 6
      vertex 164.2 174.2 6
      vertex 4 174.2 6
    endloop
  endfacet
  facet normal 0 0 1
    outer loop
      vertex 74.1 54.55 6
      vertex 156.2 54.55 6
      vertex 74.1 133.65 6
    endloop
  endfacet
  facet normal 0 0 1
    outer loop
      vertex 12 54.55 6
      vertex 12 133.65 6
      vertex 4 174.2 6
    endloop
  endfacet
  facet normal 0 0 1
    outer loop
      vertex 12 54.55 6
      vertex 64.1 54.55 6
      vertex 12 133.65 6
    endloop
  endfacet
  facet normal 0 0 1
    outer loop
      vertex 12 133.65 6
      vertex 12 143.65 6
      vertex 4 174.2 6
    endloop
  endfacet
  facet normal 0 0 1
    outer loop
      vertex 164.2 4 6
      vertex 164.2 174.2 6
      vertex 156.2 143.65 6
    endloop
  endfacet
  facet normal 0 0 1
    outer loop
      vertex 156.2 54.55 6
      vertex 156.2 133.65 6
      vertex 74.1 133.65 6
    endloop
  endfacet
  facet normal 0 0 1
    outer loop
      vertex 164.2 4 6
      vertex 156.2 143.65 6
      vertex 156.2 133.65 6
    endloop
  endfacet
  facet normal 0 0 1
    outer loop
      vertex 64.1 133.65 6
      vertex 12 133.65 6
      vertex 64.1 54.55 6
    endloop
  endfacet
  facet normal 0 0 1
    outer loop
      vertex 164.2 4 6
      vertex 156.2 133.65 6
      vertex 156.2 54.55 6
    endloop
  endfacet
  facet normal 0 0 1
    outer loop
      vertex 164.2 4 6
      vertex 156.2 54.55 6
      vertex 156.2 44.55 6
    endloop
  endfacet
  facet normal 0 0 1
    outer loop
      vertex 64.1 44.55 6
      vertex 12 44.55 6
      vertex 64.1 8 6
    endloop
  endfacet
  facet normal 0 0 1
    outer loop
      vertex 4 4 6
      vertex 164.2 4 6
      vertex 74.1 8 6
    endloop
  endfacet
  facet normal 0 0 1
    outer loop
      vertex 4 4 6
      vertex 74.1 8 6
      vertex 64.1 8 6
    endloop
  endfacet
  facet normal 0 0 1
    outer loop
      vertex 4 4 6
      vertex 12 44.55 6
      vertex 12 54.55 6
    endloop
  endfacet
  facet normal 0 0 1
    outer loop
      vertex 4 4 6
      vertex 64.1 8 6
      vertex 12 44.55 6
    endloop
  endfacet
  facet normal 0 0 1
    outer loop
      vertex 74.1 44.55 6
      vertex 74.1 8 6
      vertex 164.2 4 6
    endloop
  endfacet
  facet normal 0 0 1
    outer loop
      vertex 12 143.65 6
      vertex 156.2 143.65 6
      vertex 164.2 174.2 6
    endloop
  endfacet
  facet normal 9.7037e-17 -0.453991 -0.891006
    outer loop
      vertex 166.963 1.23664 0.572949
      vertex 1.23664 1.23664 0.572949
      vertex 2.07295 2.07295 0.14683
    endloop
  endfacet
  facet normal 9.7037e-17 -0.453991 -0.891006
    outer loop
      vertex 166.963 1.23664 0.572949
      vertex 2.07295 2.07295 0.14683
      vertex 166.127 2.07295 0.14683
    endloop
  endfacet
  facet normal -0.453991 -1.97843e-16 -0.891006
    outer loop
      vertex 1.23664 1.23664 0.572949
      vertex 1.23664 176.963 0.572949
      vertex 2.07295 2.07295 0.14683
    endloop
  endfacet
  facet normal -0.453991 -1.97843e-16 -0.891006
    outer loop
      vertex 2.07295 2.07295 0.14683
      vertex 1.23664 176.963 0.572949
      vertex 2.07295 176.127 0.14683
    endloop
  endfacet
  facet normal -2.98649e-16 0.453991 -0.891006
    outer loop
      vertex 1.23664 176.963 0.572949
      vertex 166.963 176.963 0.572949
      vertex 166.127 176.127 0.14683
    endloop
  endfacet
  facet normal -2.98649e-16 0.453991 -0.891006
    outer loop
      vertex 1.23664 176.963 0.572949
      vertex 166.127 176.127 0.14683
      vertex 2.07295 176.127 0.14683
    endloop
  endfacet
  facet normal 0.453991 -1.00806e-16 -0.891006
    outer loop
      vertex 166.127 2.07295 0.14683
      vertex 166.127 176.127 0.14683
      vertex 166.963 176.963 0.572949
    endloop
  endfacet
  facet normal 0.453991 -1.00806e-16 -0.891006
    outer loop
      vertex 166.127 2.07295 0.14683
      vertex 166.963 176.963 0.572949
      vertex 166.963 1.23664 0.572949
    endloop
  endfacet
  facet normal 1 0 0
    outer loop
      vertex 12 54.55 4
      vertex 12 54.55 6
      vertex 12 44.55 6
    endloop
  endfacet
  facet normal 1 0 0
    outer loop
      vertex 12 44.55 4
      vertex 12 54.55 4
      vertex 12 44.55 6
    endloop
  endfacet
  facet normal 0 -1 0
    outer loop
      vertex 64.1 54.55 4
      vertex 64.1 54.55 6
      vertex 12 54.55 6
    endloop
  endfacet
  facet normal 0 -1 0
    outer loop
      vertex 12 54.55 4
      vertex 64.1 54.55 4
      vertex 12 54.55 6
    endloop
  endfacet
  facet normal 0 1 0
    outer loop
      vertex 64.1 44.55 6
      vertex 64.1 44.55 4
      vertex 12 44.55 6
    endloop
  endfacet
  facet normal 0 1 0
    outer loop
      vertex 12 44.55 6
      vertex 64.1 44.55 4
      vertex 12 44.55 4
    endloop
  endfacet
  facet normal 1 0 0
    outer loop
      vertex 64.1 44.55 4
      vertex 64.1 44.55 6
      vertex 64.1 8 6
    endloop
  endfacet
  facet normal 1 0 0
    outer loop
      vertex 64.1 8 4
      vertex 64.1 44.55 4
      vertex 64.1 8 6
    endloop
  endfacet
  facet normal 0 1 0
    outer loop
      vertex 74.1 8 6
      vertex 74.1 8 4
      vertex 64.1 8 6
    endloop
  endfacet
  facet normal 0 1 0
    outer loop
      vertex 64.1 8 6
      vertex 74.1 8 4
      vertex 64.1 8 4
    endloop
  endfacet
  facet normal -1 0 0
    outer loop
      vertex 74.1 44.55 6
      vertex 74.1 44.55 4
      vertex 74.1 8 6
    endloop
  endfacet
  facet normal -1 0 0
    outer loop
      vertex 74.1 8 6
      vertex 74.1 44.55 4
      vertex 74.1 8 4
    endloop
  endfacet
  facet normal 0 1 0
    outer loop
      vertex 156.2 44.55 6
      vertex 156.2 44.55 4
      vertex 74.1 44.55 6
    endloop
  endfacet
  facet normal 0 1 0
    outer loop
      vertex 74.1 44.55 6
      vertex 156.2 44.55 4
      vertex 74.1 44.55 4
    endloop
  endfacet
  facet normal -1 0 0
    outer loop
      vertex 156.2 54.55 6
      vertex 156.2 54.55 4
      vertex 156.2 44.55 6
    endloop
  endfacet
  facet normal -1 0 0
    outer loop
      vertex 156.2 44.55 6
      vertex 156.2 54.55 4
      vertex 156.2 44.55 4
    endloop
  endfacet
  facet normal 0 -1 0
    outer loop
      vertex 156.2 54.55 4
      vertex 156.2 54.55 6
      vertex 74.1 54.55 6
    endloop
  endfacet
  facet normal 0 -1 0
    outer loop
      vertex 74.1 54.55 4
      vertex 156.2 54.55 4
      vertex 74.1 54.55 6
    endloop
  endfacet
  facet normal -1 0 0
    outer loop
      vertex 74.1 133.65 6
      vertex 74.1 133.65 4
      vertex 74.1 54.55 6
    endloop
  endfacet
  facet normal -1 0 0
    outer loop
      vertex 74.1 54.55 6
      vertex 74.1 133.65 4
      vertex 74.1 54.55 4
    endloop
  endfacet
  facet normal 0 1 0
    outer loop
      vertex 156.2 133.65 6
      vertex 156.2 133.65 4
      vertex 74.1 133.65 6
    endloop
  endfacet
  facet normal 0 1 0
    outer loop
      vertex 74.1 133.65 6
      vertex 156.2 133.65 4
      vertex 74.1 133.65 4
    endloop
  endfacet
  facet normal -1 0 0
    outer loop
      vertex 156.2 143.65 6
      vertex 156.2 143.65 4
      vertex 156.2 133.65 6
    endloop
  endfacet
  facet normal -1 0 0
    outer loop
      vertex 156.2 133.65 6
      vertex 156.2 143.65 4
      vertex 156.2 133.65 4
    endloop
  endfacet
  facet normal 0 -1 0
    outer loop
      vertex 156.2 143.65 4
      vertex 156.2 143.65 6
      vertex 12 143.65 6
    endloop
  endfacet
  facet normal 0 -1 0
    outer loop
      vertex 12 143.65 4
      vertex 156.2 143.65 4
      vertex 12 143.65 6
    endloop
  endfacet
  facet normal 1 0 0
    outer loop
      vertex 12 143.65 4
      vertex 12 143.65 6
      vertex 12 133.65 6
    endloop
  endfacet
  facet normal 1 0 0
    outer loop
      vertex 12 133.65 4
      vertex 12 143.65 4
      vertex 12 133.65 6
    endloop
  endfacet
  facet normal 0 1 0
    outer loop
      vertex 64.1 133.65 6
      vertex 64.1 133.65 4
      vertex 12 133.65 6
    endloop
  endfacet
  facet normal 0 1 0
    outer loop
      vertex 12 133.65 6
      vertex 64.1 133.65 4
      vertex 12 133.65 4
    endloop
  endfacet
  facet normal 1 0 0
    outer loop
      vertex 64.1 133.65 4
      vertex 64.1 133.65 6
      vertex 64.1 54.55 6
    endloop
  endfacet
  facet normal 1 0 0
    outer loop
      vertex 64.1 54.55 4
      vertex 64.1 133.65 4
      vertex 64.1 54.55 6
    endloop
  endfacet
  facet normal 1.84576e-16 -0.156434 -0.987688
    outer loop
      vertex 3.005 2.995 0.00079192
      vertex 2.07295 2.07295 0.14683
      vertex 3 3 6.66134e-16
    endloop
  endfacet
  facet normal 1.84576e-16 -0.156434 -0.987688
    outer loop
      vertex 166.127 2.07295 0.14683
      vertex 2.07295 2.07295 0.14683
      vertex 3.005 2.995 0.00079192
    endloop
  endfacet
  facet normal 1.84576e-16 -0.156434 -0.987688
    outer loop
      vertex 3.005 3 6.67244e-16
      vertex 166.127 2.07295 0.14683
      vertex 3.005 2.995 0.00079192
    endloop
  endfacet
  facet normal 1.84576e-16 -0.156434 -0.987688
    outer loop
      vertex 165.2 3 3.66818e-14
      vertex 166.127 2.07295 0.14683
      vertex 165.195 2.995 0.00079192
    endloop
  endfacet
  facet normal 1.84576e-16 -0.156434 -0.987688
    outer loop
      vertex 165.195 2.995 0.00079192
      vertex 3.005 3 6.67244e-16
      vertex 165.195 3 3.66807e-14
    endloop
  endfacet
  facet normal 1.84576e-16 -0.156434 -0.987688
    outer loop
      vertex 166.127 2.07295 0.14683
      vertex 3.005 3 6.67244e-16
      vertex 165.195 2.995 0.00079192
    endloop
  endfacet
  facet normal -0.156434 -2.19311e-16 -0.987688
    outer loop
      vertex 2.995 175.195 0.00079192
      vertex 2.07295 176.127 0.14683
      vertex 3 175.2 0
    endloop
  endfacet
  facet normal -0.156434 -2.19311e-16 -0.987688
    outer loop
      vertex 2.995 3.005 0.00079192
      vertex 2.07295 176.127 0.14683
      vertex 2.995 175.195 0.00079192
    endloop
  endfacet
  facet normal -0.156434 -2.19311e-16 -0.987688
    outer loop
      vertex 2.07295 2.07295 0.14683
      vertex 2.07295 176.127 0.14683
      vertex 2.995 3.005 0.00079192
    endloop
  endfacet
  facet normal -0.156434 -2.19311e-16 -0.987688
    outer loop
      vertex 2.07295 2.07295 0.14683
      vertex 2.995 3.005 0.00079192
      vertex 3 3 6.66134e-16
    endloop
  endfacet
  facet normal -0.156434 -2.19311e-16 -0.987688
    outer loop
      vertex 2.995 3.005 0.00079192
      vertex 2.995 175.195 0.00079192
      vertex 3 175.195 0
    endloop
  endfacet
  facet normal -0.156434 -2.19311e-16 -0.987688
    outer loop
      vertex 2.995 3.005 0.00079192
      vertex 3 175.195 0
      vertex 3 3.005 0
    endloop
  endfacet
  facet normal -2.54046e-16 0.156434 -0.987688
    outer loop
      vertex 165.195 175.205 0.00079192
      vertex 166.127 176.127 0.14683
      vertex 165.2 175.2 6.66134e-16
    endloop
  endfacet
  facet normal -2.54046e-16 0.156434 -0.987688
    outer loop
      vertex 2.07295 176.127 0.14683
      vertex 166.127 176.127 0.14683
      vertex 165.195 175.205 0.00079192
    endloop
  endfacet
  facet normal -2.54046e-16 0.156434 -0.987688
    outer loop
      vertex 3 175.2 0
      vertex 2.07295 176.127 0.14683
      vertex 3.005 175.205 0.00079192
    endloop
  endfacet
  facet normal -2.54046e-16 0.156434 -0.987688
    outer loop
      vertex 3.005 175.205 0.00079192
      vertex 165.195 175.2 0
      vertex 3.005 175.2 0
    endloop
  endfacet
  facet normal -2.54046e-16 0.156434 -0.987688
    outer loop
      vertex 2.07295 176.127 0.14683
      vertex 165.195 175.2 0
      vertex 3.005 175.205 0.00079192
    endloop
  endfacet
  facet normal -2.54046e-16 0.156434 -0.987688
    outer loop
      vertex 165.195 175.2 0
      vertex 2.07295 176.127 0.14683
      vertex 165.195 175.205 0.00079192
    endloop
  endfacet
  facet normal 0.156434 -3.47353e-17 -0.987688
    outer loop
      vertex 165.2 3.005 6.66134e-16
      vertex 165.2 175.195 6.66134e-16
      vertex 165.205 3.005 0.00079192
    endloop
  endfacet
  facet normal 0.156434 -3.47353e-17 -0.987688
    outer loop
      vertex 165.205 3.005 0.00079192
      vertex 165.2 175.195 6.66134e-16
      vertex 165.205 175.195 0.00079192
    endloop
  endfacet
  facet normal 0.156434 -3.47353e-17 -0.987688
    outer loop
      vertex 165.205 175.195 0.00079192
      vertex 165.2 175.2 6.66134e-16
      vertex 166.127 176.127 0.14683
    endloop
  endfacet
  facet normal 0.156434 -3.47353e-17 -0.987688
    outer loop
      vertex 165.205 175.195 0.00079192
      vertex 166.127 176.127 0.14683
      vertex 165.205 3.005 0.00079192
    endloop
  endfacet
  facet normal 0.156434 -3.47353e-17 -0.987688
    outer loop
      vertex 165.205 3.005 0.00079192
      vertex 166.127 176.127 0.14683
      vertex 166.127 2.07295 0.14683
    endloop
  endfacet
  facet normal 0.156434 -3.47353e-17 -0.987688
    outer loop
      vertex 165.205 3.005 0.00079192
      vertex 166.127 2.07295 0.14683
      vertex 165.2 3 3.66818e-14
    endloop
  endfacet
  facet normal 0 0 1
    outer loop
      vertex 69.718 10.0979 4
      vertex 64.1 8 4
      vertex 74.1 8 4
    endloop
  endfacet
  facet normal 0 0 1
    outer loop
      vertex 156.2 54.55 4
      vertex 64.1 44.55 4
      vertex 74.1 44.55 4
    endloop
  endfacet
  facet normal 0 0 1
    outer loop
      vertex 74.1 44.55 4
      vertex 64.1 44.55 4
      vertex 74.1 8 4
    endloop
  endfacet
  facet normal 0 0 1
    outer loop
      vertex 156.2 54.55 4
      vertex 74.1 44.55 4
      vertex 156.2 44.55 4
    endloop
  endfacet
  facet normal 0 0 1
    outer loop
      vertex 74.1 54.55 4
      vertex 64.1 44.55 4
      vertex 156.2 54.55 4
    endloop
  endfacet
  facet normal 0 0 1
    outer loop
      vertex 74.1 133.65 4
      vertex 64.1 44.55 4
      vertex 74.1 54.55 4
    endloop
  endfacet
  facet normal 0 0 1
    outer loop
      vertex 64.1 133.65 4
      vertex 64.1 54.55 4
      vertex 74.1 133.65 4
    endloop
  endfacet
  facet normal 0 0 1
    outer loop
      vertex 156.2 143.65 4
      vertex 74.1 133.65 4
      vertex 156.2 133.65 4
    endloop
  endfacet
  facet normal 0 0 1
    outer loop
      vertex 12 143.65 4
      vertex 74.1 133.65 4
      vertex 156.2 143.65 4
    endloop
  endfacet
  facet normal 0 0 1
    outer loop
      vertex 12 133.65 4
      vertex 64.1 133.65 4
      vertex 12 143.65 4
    endloop
  endfacet
  facet normal 0 0 1
    outer loop
      vertex 12 143.65 4
      vertex 64.1 133.65 4
      vertex 74.1 133.65 4
    endloop
  endfacet
  facet normal 0 0 1
    outer loop
      vertex 64.1 54.55 4
      vertex 64.1 44.55 4
      vertex 74.1 133.65 4
    endloop
  endfacet
  facet normal 0 0 1
    outer loop
      vertex 64.1 54.55 4
      vertex 12 54.55 4
      vertex 64.1 44.55 4
    endloop
  endfacet
  facet normal 0 0 1
    outer loop
      vertex 64.1 44.55 4
      vertex 64.1 8 4
      vertex 67.1 12 4
    endloop
  endfacet
  facet normal 0 0 1
    outer loop
      vertex 70.2756 10.382 4
      vertex 69.718 10.0979 4
      vertex 74.1 8 4
    endloop
  endfacet
  facet normal 0 0 1
    outer loop
      vertex 64.1 44.55 4
      vertex 67.1 12 4
      vertex 67.1979 12.618 4
    endloop
  endfacet
  facet normal 0 0 1
    outer loop
      vertex 64.1 44.55 4
      vertex 67.1979 12.618 4
      vertex 67.482 13.1756 4
    endloop
  endfacet
  facet normal 0 0 1
    outer loop
      vertex 64.1 44.55 4
      vertex 67.482 13.1756 4
      vertex 67.9244 13.618 4
    endloop
  endfacet
  facet normal 0 0 1
    outer loop
      vertex 70.718 10.8244 4
      vertex 70.2756 10.382 4
      vertex 74.1 8 4
    endloop
  endfacet
  facet normal 0 0 1
    outer loop
      vertex 64.1 44.55 4
      vertex 67.9244 13.618 4
      vertex 68.482 13.9021 4
    endloop
  endfacet
  facet normal 0 0 1
    outer loop
      vertex 64.1 44.55 4
      vertex 68.482 13.9021 4
      vertex 69.1 14 4
    endloop
  endfacet
  facet normal 0 0 1
    outer loop
      vertex 71.1 12 4
      vertex 71.0021 11.382 4
      vertex 74.1 8 4
    endloop
  endfacet
  facet normal 0 0 1
    outer loop
      vertex 64.1 44.55 4
      vertex 69.1 14 4
      vertex 69.718 13.9021 4
    endloop
  endfacet
  facet normal 0 0 1
    outer loop
      vertex 71.0021 11.382 4
      vertex 70.718 10.8244 4
      vertex 74.1 8 4
    endloop
  endfacet
  facet normal 0 0 1
    outer loop
      vertex 64.1 44.55 4
      vertex 69.718 13.9021 4
      vertex 70.2756 13.618 4
    endloop
  endfacet
  facet normal 0 0 1
    outer loop
      vertex 64.1 44.55 4
      vertex 70.718 13.1756 4
      vertex 74.1 8 4
    endloop
  endfacet
  facet normal 0 0 1
    outer loop
      vertex 64.1 44.55 4
      vertex 70.2756 13.618 4
      vertex 70.718 13.1756 4
    endloop
  endfacet
  facet normal 0 0 1
    outer loop
      vertex 70.718 13.1756 4
      vertex 71.0021 12.618 4
      vertex 74.1 8 4
    endloop
  endfacet
  facet normal 0 0 1
    outer loop
      vertex 69.1 10 4
      vertex 64.1 8 4
      vertex 69.718 10.0979 4
    endloop
  endfacet
  facet normal 0 0 1
    outer loop
      vertex 68.482 10.0979 4
      vertex 64.1 8 4
      vertex 69.1 10 4
    endloop
  endfacet
  facet normal 0 0 1
    outer loop
      vertex 67.9244 10.382 4
      vertex 64.1 8 4
      vertex 68.482 10.0979 4
    endloop
  endfacet
  facet normal 0 0 1
    outer loop
      vertex 67.482 10.8244 4
      vertex 64.1 8 4
      vertex 67.9244 10.382 4
    endloop
  endfacet
  facet normal 0 0 1
    outer loop
      vertex 67.1979 11.382 4
      vertex 64.1 8 4
      vertex 67.482 10.8244 4
    endloop
  endfacet
  facet normal 0 0 1
    outer loop
      vertex 67.1 12 4
      vertex 64.1 8 4
      vertex 67.1979 11.382 4
    endloop
  endfacet
  facet normal 0 0 1
    outer loop
      vertex 71.0021 12.618 4
      vertex 71.1 12 4
      vertex 74.1 8 4
    endloop
  endfacet
  facet normal 0 0 1
    outer loop
      vertex 12 44.55 4
      vertex 64.1 44.55 4
      vertex 12 54.55 4
    endloop
  endfacet
  facet normal 2.54046e-16 0.156434 -0.987688
    outer loop
      vertex 3.005 3.005 0.00079192
      vertex 165.195 3.005 0.00079192
      vertex 3.005 3 6.67244e-16
    endloop
  endfacet
  facet normal 2.54046e-16 0.156434 -0.987688
    outer loop
      vertex 2.995 3.005 0.00079192
      vertex 165.205 3.005 0.00079192
      vertex 165.195 3.005 0.00079192
    endloop
  endfacet
  facet normal 2.54046e-16 0.156434 -0.987688
    outer loop
      vertex 2.995 3.005 0.00079192
      vertex 165.195 3.005 0.00079192
      vertex 3.005 3.005 0.00079192
    endloop
  endfacet
  facet normal 2.54046e-16 0.156434 -0.987688
    outer loop
      vertex 2.995 3.005 0.00079192
      vertex 3.005 3.005 0.00079192
      vertex 3 3 6.66134e-16
    endloop
  endfacet
  facet normal 2.54046e-16 0.156434 -0.987688
    outer loop
      vertex 165.195 3.005 0.00079192
      vertex 165.205 3.005 0.00079192
      vertex 165.2 3 3.66818e-14
    endloop
  endfacet
  facet normal 2.54046e-16 0.156434 -0.987688
    outer loop
      vertex 165.195 3 3.66807e-14
      vertex 3.005 3 6.67244e-16
      vertex 165.195 3.005 0.00079192
    endloop
  endfacet
  facet normal -0.156434 3.47353e-17 -0.987688
    outer loop
      vertex 165.2 3 3.66818e-14
      vertex 165.195 2.995 0.00079192
      vertex 165.195 3.005 0.00079192
    endloop
  endfacet
  facet normal 1 -2.22045e-16 -2.22045e-16
    outer loop
      vertex 165.195 3 3.66807e-14
      vertex 165.195 3.005 0.00079192
      vertex 165.195 2.995 0.00079192
    endloop
  endfacet
  facet normal -1 0 0
    outer loop
      vertex 3.005 3.005 0.00079192
      vertex 3.005 3 6.67244e-16
      vertex 3.005 2.995 0.00079192
    endloop
  endfacet
  facet normal 0.156434 -2.19311e-16 -0.987688
    outer loop
      vertex 3.005 2.995 0.00079192
      vertex 3 3 6.66134e-16
      vertex 3.005 3.005 0.00079192
    endloop
  endfacet
  facet normal -2.22045e-16 -1 -4.93038e-32
    outer loop
      vertex 165.195 3.005 0.00079192
      vertex 165.205 3.005 0.00079192
      vertex 3.005 3.005 0.00079192
    endloop
  endfacet
  facet normal -2.22045e-16 -1 -4.93038e-32
    outer loop
      vertex 2.995 3.005 0.00079192
      vertex 3 3.005 0
      vertex 3.005 3.005 0.00079192
    endloop
  endfacet
  facet normal -2.22045e-16 -1 -4.93038e-32
    outer loop
      vertex 3.005 3.005 0
      vertex 165.195 3.005 0
      vertex 3.005 3.005 0.00079192
    endloop
  endfacet
  facet normal -2.22045e-16 -1 -4.93038e-32
    outer loop
      vertex 165.195 3.005 0
      vertex 165.195 3.005 0.00079192
      vertex 3.005 3.005 0.00079192
    endloop
  endfacet
  facet normal -2.22045e-16 -1 -4.93038e-32
    outer loop
      vertex 165.2 3.005 6.66134e-16
      vertex 165.205 3.005 0.00079192
      vertex 165.195 3.005 0.00079192
    endloop
  endfacet
  facet normal -2.22045e-16 -1 -4.93038e-32
    outer loop
      vertex 165.205 3.005 0.00079192
      vertex 2.995 3.005 0.00079192
      vertex 3.005 3.005 0.00079192
    endloop
  endfacet
  facet normal -2.22045e-16 1 4.93038e-32
    outer loop
      vertex 165.195 175.195 0
      vertex 3.005 175.195 0
      vertex 165.195 175.195 0.00079192
    endloop
  endfacet
  facet normal -2.22045e-16 1 4.93038e-32
    outer loop
      vertex 165.195 175.195 0.00079192
      vertex 3.005 175.195 0
      vertex 3.005 175.195 0.00079192
    endloop
  endfacet
  facet normal -2.22045e-16 1 4.93038e-32
    outer loop
      vertex 3.005 175.195 0.00079192
      vertex 3 175.195 0
      vertex 2.995 175.195 0.00079192
    endloop
  endfacet
  facet normal -2.22045e-16 1 4.93038e-32
    outer loop
      vertex 3.005 175.195 0.00079192
      vertex 2.995 175.195 0.00079192
      vertex 165.195 175.195 0.00079192
    endloop
  endfacet
  facet normal -1.84576e-16 -0.156434 -0.987688
    outer loop
      vertex 3.005 175.2 0
      vertex 165.195 175.195 0.00079192
      vertex 3.005 175.195 0.00079192
    endloop
  endfacet
  facet normal -1.84576e-16 -0.156434 -0.987688
    outer loop
      vertex 2.995 175.195 0.00079192
      vertex 3 175.2 0
      vertex 3.005 175.195 0.00079192
    endloop
  endfacet
  facet normal -1.84576e-16 -0.156434 -0.987688
    outer loop
      vertex 2.995 175.195 0.00079192
      vertex 3.005 175.195 0.00079192
      vertex 165.195 175.195 0.00079192
    endloop
  endfacet
  facet normal -1.84576e-16 -0.156434 -0.987688
    outer loop
      vertex 165.195 175.195 0.00079192
      vertex 3.005 175.2 0
      vertex 165.195 175.2 0
    endloop
  endfacet
  facet normal 0.156434 -2.19311e-16 -0.987688
    outer loop
      vertex 3.005 175.195 0.00079192
      vertex 3 175.2 0
      vertex 3.005 175.205 0.00079192
    endloop
  endfacet
  facet normal -1 0 0
    outer loop
      vertex 3.005 175.205 0.00079192
      vertex 3.005 175.2 0
      vertex 3.005 175.195 0.00079192
    endloop
  endfacet
  facet normal 1 -2.22045e-16 -2.22045e-16
    outer loop
      vertex 165.195 175.205 0.00079192
      vertex 165.195 175.195 0.00079192
      vertex 165.195 175.2 0
    endloop
  endfacet
  facet normal 1 -2.22045e-16 -2.22045e-16
    outer loop
      vertex 165.195 175.195 0
      vertex 165.195 175.195 0.00079192
      vertex 165.195 3.005 0.00079192
    endloop
  endfacet
  facet normal 1 -2.22045e-16 -2.22045e-16
    outer loop
      vertex 165.195 3.005 0.00079192
      vertex 165.195 175.195 0.00079192
      vertex 165.195 175.205 0.00079192
    endloop
  endfacet
  facet normal 1 -2.22045e-16 -2.22045e-16
    outer loop
      vertex 165.195 3.005 0
      vertex 165.195 175.195 0
      vertex 165.195 3.005 0.00079192
    endloop
  endfacet
  facet normal -0.156434 3.47353e-17 -0.987688
    outer loop
      vertex 165.195 3.005 0.00079192
      vertex 165.195 175.205 0.00079192
      vertex 165.195 175.195 0.00079192
    endloop
  endfacet
  facet normal -0.156434 3.47353e-17 -0.987688
    outer loop
      vertex 165.195 3.005 0.00079192
      vertex 165.195 175.195 0.00079192
      vertex 165.2 3.005 6.66134e-16
    endloop
  endfacet
  facet normal -0.156434 3.47353e-17 -0.987688
    outer loop
      vertex 165.195 175.195 0.00079192
      vertex 165.195 175.205 0.00079192
      vertex 165.2 175.2 6.66134e-16
    endloop
  endfacet
  facet normal -0.156434 3.47353e-17 -0.987688
    outer loop
      vertex 165.2 175.195 6.66134e-16
      vertex 165.2 3.005 6.66134e-16
      vertex 165.195 175.195 0.00079192
    endloop
  endfacet
  facet normal -1.84576e-16 -0.156434 -0.987688
    outer loop
      vertex 165.205 175.195 0.00079192
      vertex 165.195 175.195 0.00079192
      vertex 165.2 175.2 6.66134e-16
    endloop
  endfacet
  facet normal -2.22045e-16 1 4.93038e-32
    outer loop
      vertex 165.205 175.195 0.00079192
      vertex 165.2 175.195 6.66134e-16
      vertex 165.195 175.195 0.00079192
    endloop
  endfacet
  facet normal 0.987688 0.156435 0
    outer loop
      vertex 67.1 12 4
      vertex 67.1979 11.382 4
      vertex 67.1979 11.382 0
    endloop
  endfacet
  facet normal 0.987688 0.156435 0
    outer loop
      vertex 67.1 12 0
      vertex 67.1 12 4
      vertex 67.1979 11.382 0
    endloop
  endfacet
  facet normal 0.987688 -0.156435 0
    outer loop
      vertex 67.1979 12.618 0
      vertex 67.1979 12.618 4
      vertex 67.1 12 4
    endloop
  endfacet
  facet normal 0.987688 -0.156435 0
    outer loop
      vertex 67.1 12 0
      vertex 67.1979 12.618 0
      vertex 67.1 12 4
    endloop
  endfacet
  facet normal 0.891007 0.45399 0
    outer loop
      vertex 67.1979 11.382 4
      vertex 67.482 10.8244 4
      vertex 67.482 10.8244 0
    endloop
  endfacet
  facet normal 0.891007 0.45399 0
    outer loop
      vertex 67.1979 11.382 0
      vertex 67.1979 11.382 4
      vertex 67.482 10.8244 0
    endloop
  endfacet
  facet normal 0.707107 0.707107 0
    outer loop
      vertex 67.9244 10.382 4
      vertex 67.9244 10.382 0
      vertex 67.482 10.8244 4
    endloop
  endfacet
  facet normal 0.707107 0.707107 0
    outer loop
      vertex 67.482 10.8244 4
      vertex 67.9244 10.382 0
      vertex 67.482 10.8244 0
    endloop
  endfacet
  facet normal 0.45399 0.891007 0
    outer loop
      vertex 68.482 10.0979 4
      vertex 68.482 10.0979 0
      vertex 67.9244 10.382 4
    endloop
  endfacet
  facet normal 0.45399 0.891007 0
    outer loop
      vertex 67.9244 10.382 4
      vertex 68.482 10.0979 0
      vertex 67.9244 10.382 0
    endloop
  endfacet
  facet normal 0.156435 0.987688 0
    outer loop
      vertex 69.1 10 4
      vertex 69.1 10 0
      vertex 68.482 10.0979 4
    endloop
  endfacet
  facet normal 0.156435 0.987688 0
    outer loop
      vertex 68.482 10.0979 4
      vertex 69.1 10 0
      vertex 68.482 10.0979 0
    endloop
  endfacet
  facet normal -0.156435 0.987688 0
    outer loop
      vertex 69.718 10.0979 4
      vertex 69.718 10.0979 0
      vertex 69.1 10 4
    endloop
  endfacet
  facet normal -0.156435 0.987688 0
    outer loop
      vertex 69.1 10 4
      vertex 69.718 10.0979 0
      vertex 69.1 10 0
    endloop
  endfacet
  facet normal -0.45399 0.891007 0
    outer loop
      vertex 70.2756 10.382 4
      vertex 70.2756 10.382 0
      vertex 69.718 10.0979 4
    endloop
  endfacet
  facet normal -0.45399 0.891007 0
    outer loop
      vertex 69.718 10.0979 4
      vertex 70.2756 10.382 0
      vertex 69.718 10.0979 0
    endloop
  endfacet
  facet normal -0.707107 0.707107 0
    outer loop
      vertex 70.718 10.8244 4
      vertex 70.718 10.8244 0
      vertex 70.2756 10.382 4
    endloop
  endfacet
  facet normal -0.707107 0.707107 0
    outer loop
      vertex 70.2756 10.382 4
      vertex 70.718 10.8244 0
      vertex 70.2756 10.382 0
    endloop
  endfacet
  facet normal -0.891007 0.45399 0
    outer loop
      vertex 71.0021 11.382 4
      vertex 71.0021 11.382 0
      vertex 70.718 10.8244 4
    endloop
  endfacet
  facet normal -0.891007 0.45399 0
    outer loop
      vertex 70.718 10.8244 4
      vertex 71.0021 11.382 0
      vertex 70.718 10.8244 0
    endloop
  endfacet
  facet normal -0.987688 0.156435 0
    outer loop
      vertex 71.1 12 4
      vertex 71.1 12 0
      vertex 71.0021 11.382 4
    endloop
  endfacet
  facet normal -0.987688 0.156435 0
    outer loop
      vertex 71.0021 11.382 4
      vertex 71.1 12 0
      vertex 71.0021 11.382 0
    endloop
  endfacet
  facet normal -0.987688 -0.156435 0
    outer loop
      vertex 71.1 12 4
      vertex 71.0021 12.618 4
      vertex 71.1 12 0
    endloop
  endfacet
  facet normal -0.987688 -0.156435 0
    outer loop
      vertex 71.1 12 0
      vertex 71.0021 12.618 4
      vertex 71.0021 12.618 0
    endloop
  endfacet
  facet normal -0.891007 -0.45399 0
    outer loop
      vertex 71.0021 12.618 4
      vertex 70.718 13.1756 4
      vertex 71.0021 12.618 0
    endloop
  endfacet
  facet normal -0.891007 -0.45399 0
    outer loop
      vertex 71.0021 12.618 0
      vertex 70.718 13.1756 4
      vertex 70.718 13.1756 0
    endloop
  endfacet
  facet normal -0.707107 -0.707107 0
    outer loop
      vertex 70.718 13.1756 0
      vertex 70.718 13.1756 4
      vertex 70.2756 13.618 4
    endloop
  endfacet
  facet normal -0.707107 -0.707107 0
    outer loop
      vertex 70.2756 13.618 0
      vertex 70.718 13.1756 0
      vertex 70.2756 13.618 4
    endloop
  endfacet
  facet normal -0.45399 -0.891007 0
    outer loop
      vertex 70.2756 13.618 0
      vertex 70.2756 13.618 4
      vertex 69.718 13.9021 4
    endloop
  endfacet
  facet normal -0.45399 -0.891007 0
    outer loop
      vertex 69.718 13.9021 0
      vertex 70.2756 13.618 0
      vertex 69.718 13.9021 4
    endloop
  endfacet
  facet normal -0.156435 -0.987688 0
    outer loop
      vertex 69.718 13.9021 0
      vertex 69.718 13.9021 4
      vertex 69.1 14 4
    endloop
  endfacet
  facet normal -0.156435 -0.987688 0
    outer loop
      vertex 69.1 14 0
      vertex 69.718 13.9021 0
      vertex 69.1 14 4
    endloop
  endfacet
  facet normal 0.156435 -0.987688 0
    outer loop
      vertex 69.1 14 0
      vertex 69.1 14 4
      vertex 68.482 13.9021 4
    endloop
  endfacet
  facet normal 0.156435 -0.987688 0
    outer loop
      vertex 68.482 13.9021 0
      vertex 69.1 14 0
      vertex 68.482 13.9021 4
    endloop
  endfacet
  facet normal 0.45399 -0.891007 0
    outer loop
      vertex 68.482 13.9021 0
      vertex 68.482 13.9021 4
      vertex 67.9244 13.618 4
    endloop
  endfacet
  facet normal 0.45399 -0.891007 0
    outer loop
      vertex 67.9244 13.618 0
      vertex 68.482 13.9021 0
      vertex 67.9244 13.618 4
    endloop
  endfacet
  facet normal 0.707107 -0.707107 0
    outer loop
      vertex 67.9244 13.618 0
      vertex 67.9244 13.618 4
      vertex 67.482 13.1756 4
    endloop
  endfacet
  facet normal 0.707107 -0.707107 0
    outer loop
      vertex 67.482 13.1756 0
      vertex 67.9244 13.618 0
      vertex 67.482 13.1756 4
    endloop
  endfacet
  facet normal 0.891007 -0.45399 0
    outer loop
      vertex 67.482 13.1756 0
      vertex 67.482 13.1756 4
      vertex 67.1979 12.618 4
    endloop
  endfacet
  facet normal 0.891007 -0.45399 0
    outer loop
      vertex 67.1979 12.618 0
      vertex 67.482 13.1756 0
      vertex 67.1979 12.618 4
    endloop
  endfacet
  facet normal 0 0 -1
    outer loop
      vertex 71.0021 12.618 0
      vertex 3.005 175.195 0
      vertex 165.195 3.005 0
    endloop
  endfacet
  facet normal 0 0 -1
    outer loop
      vertex 165.195 3.005 0
      vertex 3.005 175.195 0
      vertex 165.195 175.195 0
    endloop
  endfacet
  facet normal 0 0 -1
    outer loop
      vertex 3.005 3.005 0
      vertex 3.005 175.195 0
      vertex 67.1 12 0
    endloop
  endfacet
  facet normal 0 0 -1
    outer loop
      vertex 3.005 3.005 0
      vertex 67.1 12 0
      vertex 67.1979 11.382 0
    endloop
  endfacet
  facet normal 0 0 -1
    outer loop
      vertex 3.005 3.005 0
      vertex 67.1979 11.382 0
      vertex 67.482 10.8244 0
    endloop
  endfacet
  facet normal 0 0 -1
    outer loop
      vertex 3.005 3.005 0
      vertex 67.482 10.8244 0
      vertex 67.9244 10.382 0
    endloop
  endfacet
  facet normal 0 0 -1
    outer loop
      vertex 3.005 3.005 0
      vertex 67.9244 10.382 0
      vertex 68.482 10.0979 0
    endloop
  endfacet
  facet normal 0 0 -1
    outer loop
      vertex 3.005 3.005 0
      vertex 68.482 10.0979 0
      vertex 69.1 10 0
    endloop
  endfacet
  facet normal 0 0 -1
    outer loop
      vertex 3.005 3.005 0
      vertex 69.1 10 0
      vertex 165.195 3.005 0
    endloop
  endfacet
  facet normal 0 0 -1
    outer loop
      vertex 70.2756 10.382 0
      vertex 165.195 3.005 0
      vertex 69.718 10.0979 0
    endloop
  endfacet
  facet normal 0 0 -1
    outer loop
      vertex 70.718 10.8244 0
      vertex 165.195 3.005 0
      vertex 70.2756 10.382 0
    endloop
  endfacet
  facet normal 0 0 -1
    outer loop
      vertex 71.0021 11.382 0
      vertex 165.195 3.005 0
      vertex 70.718 10.8244 0
    endloop
  endfacet
  facet normal 0 0 -1
    outer loop
      vertex 71.1 12 0
      vertex 165.195 3.005 0
      vertex 71.0021 11.382 0
    endloop
  endfacet
  facet normal 0 0 -1
    outer loop
      vertex 70.2756 13.618 0
      vertex 3.005 175.195 0
      vertex 70.718 13.1756 0
    endloop
  endfacet
  facet normal 0 0 -1
    outer loop
      vertex 70.718 13.1756 0
      vertex 3.005 175.195 0
      vertex 71.0021 12.618 0
    endloop
  endfacet
  facet normal 0 0 -1
    outer loop
      vertex 71.1 12 0
      vertex 71.0021 12.618 0
      vertex 165.195 3.005 0
    endloop
  endfacet
  facet normal 0 0 -1
    outer loop
      vertex 69.718 13.9021 0
      vertex 3.005 175.195 0
      vertex 70.2756 13.618 0
    endloop
  endfacet
  facet normal 0 0 -1
    outer loop
      vertex 69.1 14 0
      vertex 3.005 175.195 0
      vertex 69.718 13.9021 0
    endloop
  endfacet
  facet normal 0 0 -1
    outer loop
      vertex 68.482 13.9021 0
      vertex 3.005 175.195 0
      vertex 69.1 14 0
    endloop
  endfacet
  facet normal 0 0 -1
    outer loop
      vertex 67.9244 13.618 0
      vertex 3.005 175.195 0
      vertex 68.482 13.9021 0
    endloop
  endfacet
  facet normal 0 0 -1
    outer loop
      vertex 67.482 13.1756 0
      vertex 3.005 175.195 0
      vertex 67.9244 13.618 0
    endloop
  endfacet
  facet normal 0 0 -1
    outer loop
      vertex 67.1979 12.618 0
      vertex 3.005 175.195 0
      vertex 67.482 13.1756 0
    endloop
  endfacet
  facet normal 0 0 -1
    outer loop
      vertex 67.1 12 0
      vertex 3.005 175.195 0
      vertex 67.1979 12.618 0
    endloop
  endfacet
  facet normal 0 0 -1
    outer loop
      vertex 69.718 10.0979 0
      vertex 165.195 3.005 0
      vertex 69.1 10 0
    endloop
  endfacet
  facet normal -1 0 0
    outer loop
      vertex 3.005 175.195 0
      vertex 3.005 3.005 0
      vertex 3.005 175.195 0.00079192
    endloop
  endfacet
  facet normal -1 0 0
    outer loop
      vertex 3.005 175.195 0.00079192
      vertex 3.005 3.005 0
      vertex 3.005 3.005 0.00079192
    endloop
  endfacet
  facet normal 0.156434 -2.19311e-16 -0.987688
    outer loop
      vertex 3 3.005 0
      vertex 3 175.195 0
      vertex 3.005 3.005 0.00079192
    endloop
  endfacet
  facet normal 0.156434 -2.19311e-16 -0.987688
    outer loop
      vertex 3.005 3.005 0.00079192
      vertex 3 175.195 0
      vertex 3.005 175.195 0.00079192
    endloop
  endfacet
endsolid OpenSCAD_Model
